<?xml version="1.0" encoding="UTF-8"?><svg id="txt" xmlns="http://www.w3.org/2000/svg" viewBox="0 0 222 222"><defs><style>.cls-1{fill:#e8b735;}.cls-2{fill-rule:evenodd;}.cls-2,.cls-3{fill:#fff;}.cls-4{fill:none;stroke:#fff;stroke-miterlimit:10;}</style></defs><path class="cls-3" d="M59.1,109.32l-1.54,1.29c-.8-1.7-1.74-3.54-2.52-5.06v14.72h-2.03v-13.02c-1.03,3.13-2.43,6.05-4,8.43l-.71-.75c1.57-3.16,3.2-7.31,4.46-13.09h-3.63v-1.43h3.89v-11.76h2.03v11.76h3.23v1.43h-3.23v1.97c1.43,1.5,3.12,3.64,4.06,5.51ZM50.33,98.91c-.29-2.45-.77-5.17-1.2-7.17l.86-.38c.83,1.87,1.66,4.52,2.2,6.97l-1.86.58ZM56.36,98.74l-.74-.41c.51-1.84,1.12-5.07,1.46-7.51l1.89.71c-.63,2.48-1.69,5.44-2.6,7.21ZM73.91,100.07v1.39h-15.15v-1.39h6.49v-2.65h-5.2v-1.43h5.2v-2.52h-5.89v-1.43h5.89v-3.47h2.14v3.47h5.92v1.43h-5.92v2.52h4.97v1.43h-4.97v2.65h6.52ZM59.79,103.5h12.43v13.84c0,2.92-2,4.08-6.32,1.84l.17-1.05c3.69.58,4.09.58,4.09-1.73v-3.23h-8.32v7.11h-2.06v-16.76ZM61.85,104.93v2.65h8.32v-2.65h-8.32ZM70.16,111.76v-2.75h-8.32v2.75h8.32Z"/><path class="cls-3" d="M82.18,94.05l.46-.98c1.31.61,4.43,2.38,5.63,3.37l-1.34,2.18c-1.17-1.46-3.69-3.67-4.74-4.56ZM107.45,112.14v1.43h-11.6v6.63h-2.17v-6.63h-11.46v-1.43h11.46v-2.92h2.17v2.92h11.6ZM89.42,100.07l.74.71c-1.23,2.45-4.2,7.07-5.75,8.94l-1.6-1.97c1.71-1.56,5.14-5.51,6.6-7.68ZM88.79,93.37c-1.17-1.29-3.12-3.06-4.14-3.94l.4-1.02c1.31.51,3.83,1.77,4.97,2.72l-1.23,2.24ZM93.67,88.04l2.2,1.12c-.49,1.29-1.17,2.69-2,4.08h6c-1.06-1.53-2.14-2.79-3.12-3.91l.51-.92c1.43.82,2.97,1.9,4.4,3.26l-1.17,1.56h6.03v1.43h-5.92v2.55h4.95v1.36h-4.95v2.75h5v1.36h-5v2.89h6.37v1.43h-13.4v1.56h-2.14v-11.63c-1.03,1.39-2.09,2.65-2.94,3.5l-.66-.85c1.94-2.24,4.74-7.72,5.83-11.56ZM98.53,94.66h-4.94v2.55h4.94v-2.55ZM98.53,98.57h-4.94v2.75h4.94v-2.75ZM98.53,102.69h-4.94v2.89h4.94v-2.89Z"/><path class="cls-3" d="M120.01,102.58c-1.26-1.83-3.23-4.25-4.4-5.68l.48-.95c1.6.99,3.89,2.62,5.52,4.39l-1.6,2.24ZM121.39,104.46l.89.34c-.83,5.2-2.09,10.91-3.12,14.11l-2.54-1.39c1.51-3.3,3.6-9.11,4.77-13.05ZM122.04,95.38c-1.14-1.84-2.92-4.32-4.12-5.85l.54-.88c1.63.99,3.97,2.96,5.32,4.62l-1.74,2.11ZM141.48,103.13l-2.2,1.8c-.49-1.15-1.09-2.41-1.71-3.71-3.49.99-9.66,2.04-13.98,2.48l-.69-3.03c.97.03,1.94.07,2.94.07,1.66-3.26,3.37-8.26,4.43-12.44l2.74.92c-1.29,3.47-3.83,8.57-5.89,11.49,3.63-.03,7.23-.31,9.86-.58-.83-1.53-1.71-3.06-2.52-4.38l.71-.78c2.43,2.38,4.69,5.37,6.29,8.16ZM125.13,106.26h13.61v13.9h-2.29v-2.75h-9.09v2.86h-2.23v-14.01ZM127.36,115.95h9.09v-8.26h-9.09v8.26Z"/><path class="cls-3" d="M166.22,110.85v6.36c0,2.45-1.91,4.22-6.72,1.39l.29-1.05c3.66.88,4.43.65,4.43-.85v-5.85h-5.23v-6.22c-.83.65-1.74,1.26-2.77,1.8l-.43-.98c1.49-.99,2.74-2.07,3.8-3.26-.77-1.02-1.63-2.07-2.29-2.82l.43-.82c1,.48,2.06,1.26,3.06,2.14.6-.85,1.11-1.7,1.54-2.58h-5.57v-1.39h6.2c.43-1.02.71-2.01.91-2.96h-8v5.17c0,9.93-.6,17.03-4.26,21.59l-.71-.71c1.91-3.54,2.54-8.06,2.74-13.8-1,1.84-2.34,3.94-3.29,5.07l-1.63-2.07c1.31-1.05,3.46-3.16,4.97-5.17.03-1.56.03-3.23.03-4.96v-6.53h10.86c-1.49-1.16-3.29-2.45-4.23-3.09l.34-1.02c1.46.41,4.26,1.43,5.8,2.52l-.8,1.6h9.03v1.43h-10.26l1.63.61c-.26.75-.54,1.53-.89,2.35h8.63v1.39h-7.17c.69,1.16,1.54,2.11,2.52,2.86.69-.92,1.2-1.77,1.66-2.65l1.63,1.43c-.8.82-1.57,1.39-2.37,1.9,1.52.99,3.17,1.63,4.86,2.18l-1.09,2.48c-1.06-.48-2.14-1.02-3.2-1.77v6.32h-4.46ZM151.1,102.75c-.54-2.35-1.29-4.86-2.03-7.07l.83-.51c1.17,1.73,2.43,4.15,3.29,6.46l-2.09,1.12ZM155.44,118.84l-.46-.88c2.03-1.43,3.92-3.54,5.4-6.15l1.74,1.46c-2.03,2.58-4.23,4.35-6.69,5.58ZM168.68,103.81h-7.69v2.18h7.69v-2.18ZM160.99,109.52h7.69v-2.28h-7.69v2.28ZM161.39,102.48h7c-1.06-1.16-2-2.58-2.77-4.38h-1.09c-.77,1.5-1.8,2.99-3.14,4.38ZM167.85,111.7c1.94,1.22,4.26,3.13,6.14,5.1l-1.6,2.01c-1.66-2.48-3.37-4.55-5-6.26l.46-.85Z"/><path class="cls-3" d="M110.41,155.47l-1.74,3.33c-3.03-1.7-9.35-8.23-10.78-20.2-1.26,10.37-6.23,17.47-13.06,20.43l-.46-1.09c5.69-3.4,9.86-9.28,11.06-19.69h-10.15v-1.7h10.32c.06-.82.12-1.67.14-2.52.06-2.07.09-4.52.11-6.77l2.46.1c0,2.65-.03,5.13-.14,7.75l-.08,1.43h11.06v1.7h-10.32c1.91,9.55,7.2,14.89,11.57,17.2Z"/><path class="cls-3" d="M143.61,155.85l-1.17,2.99c-5.14-1.16-9.29-3.98-11.35-8.97-1.77,5.71-5.83,8.26-12.52,9.38l-.29-1.05c5.92-1.46,9.03-4.04,10.43-8.4h-10.23v-1.39h10.6c.26-1.12.4-2.38.49-3.74l2.43.27c-.12,1.26-.29,2.41-.52,3.47h3.97c-.71-.85-1.71-2.04-2.49-2.86l.4-.78c1,.44,2.52,1.39,3.57,2.35l-.86,1.29h7.23v1.39h-11.14c2.46,3.84,7.03,5.51,11.43,6.05ZM121.52,139.05h-2.57v-1.36h6.8v-3.13h-3.03v1.7h-1.94v-8.26h1.94v5.2h3.03v-5.68h2.06v19h-2.06v-7.48h-2.26c-.03,3.33-1.26,6.56-4.2,8.29l-.46-.88c2-1.63,2.6-4.08,2.69-7.41ZM138.87,130.79h-5.12c-.17.2-.37.41-.54.58.71.41,1.66,1.05,2.32,1.63l-1.09,1.43c-.52-.75-1.31-1.77-1.89-2.41-.49.47-1.03.92-1.6,1.32.54.48,1.26,1.19,1.8,1.94l-1.29,1.12c-.4-.88-.86-1.84-1.26-2.55-.54.34-1.09.65-1.69.92l-.37-.88c2.72-1.9,4.43-4.28,5.52-6.6l2.03.85c-.29.48-.57.92-.92,1.39h4.4l.51-.41,2.09,1.39c-1.66,2.72-5.06,5.81-10.03,7.62h6.37v-2.55h1.97v2.55h3.34v1.33h-3.34v4.18c0,2.28-2.17,3.2-5.29.85l.26-.99c2.77.65,3.06.48,3.06-.85v-3.2h-8.17v-.75c-.51.13-1.06.27-1.6.37l-.2-1.05c4.66-1.12,8.8-4.32,10.72-7.24ZM135.09,142.18l-1.17,1.73c-.77-1.05-1.88-2.35-2.77-3.3l.43-.85c1.06.51,2.6,1.53,3.52,2.41Z"/><path class="cls-1" d="M117.2,66.88h-.45c-.15,0-.25-.08-.3-.25l-4.84-11.61h-18.3l-4.84,11.61c-.05.16-.17.25-.35.25h-.4l14.48-34.72h.5l14.48,34.72ZM111.42,54.54l-8.55-20.53c-.08-.18-.15-.36-.21-.52-.06-.17-.12-.34-.19-.52-.07.18-.13.36-.19.52-.06.16-.13.34-.21.52l-8.56,20.53h17.9Z"/><path class="cls-1" d="M129.57,66.88h-.6v-34.72h.6v34.72Z"/><path class="cls-3" d="M117.2,66.88h-.45c-.15,0-.25-.08-.3-.25l-4.84-11.61h-18.3l-4.84,11.61c-.05.16-.17.25-.35.25h-.4l14.48-34.72h.5l14.48,34.72ZM111.42,54.54l-8.55-20.53c-.08-.18-.15-.36-.21-.52-.06-.17-.12-.34-.19-.52-.07.18-.13.36-.19.52-.06.16-.13.34-.21.52l-8.56,20.53h17.9Z"/><path class="cls-3" d="M129.57,66.88h-.6v-34.72h.6v34.72Z"/><path class="cls-4" d="M117.2,66.88h-.45c-.15,0-.25-.08-.3-.25l-4.84-11.61h-18.3l-4.84,11.61c-.05.16-.17.25-.35.25h-.4l14.48-34.72h.5l14.48,34.72ZM111.42,54.54l-8.55-20.53c-.08-.18-.15-.36-.21-.52-.06-.17-.12-.34-.19-.52-.07.18-.13.36-.19.52-.06.16-.13.34-.21.52l-8.56,20.53h17.9Z"/><path class="cls-4" d="M129.57,66.88h-.6v-34.72h.6v34.72Z"/><polygon class="cls-3" points="111 179.12 113.77 184.73 119.96 185.63 115.48 189.99 116.54 196.16 111 193.25 105.46 196.16 106.52 189.99 102.04 185.63 108.23 184.73 111 179.12"/><polygon class="cls-3" points="130.48 179.12 132.35 182.91 136.53 183.52 133.51 186.46 134.22 190.62 130.48 188.66 126.75 190.62 127.46 186.46 124.44 183.52 128.62 182.91 130.48 179.12"/><polygon class="cls-3" points="91.52 179.12 93.38 182.91 97.56 183.52 94.54 186.46 95.25 190.62 91.52 188.66 87.78 190.62 88.49 186.46 85.47 183.52 89.65 182.91 91.52 179.12"/><path class="cls-2" d="M35.92,57.69c5.42-4.95,11.07-12.44,20.67-17.52-7.03.06-18.09,6.41-20.67,17.52h0Z"/><path class="cls-2" d="M42.16,59.28c-1.14.73-1.98,1.2-2.93,1.53-1.76.61-3.23.79-4.75,1.51-1.22.58-2.2,1.45-3.06,2.49-.78.95-1.36,1.81-1.81,2.74-.9,1.86-1.68,4.77-1.67,6.94.71-1.05,1.36-1.84,2.04-2.56,1.05-1.1,2.09-1.87,3.22-2.55.82-.49,1.55-.95,2.23-1.45,2.97-2.17,4.72-5.33,6.73-8.65h0Z"/><path class="cls-2" d="M27.92,74.56c0-3.17,2.06-8.57,3.25-10.61.85-1.45,1.46-3.09,2.04-4.79,1.02-3.01,1.89-6.45,2.17-9.06-1.3,1.13-2.58,2.23-4.04,3.82-3.06,3.55-4.76,7.35-4.36,12.57.15,1.97.21,6.29.95,8.07h0Z"/><path class="cls-2" d="M33.33,75.1c-1,.99-1.75,1.65-2.63,2.2-1.63,1.02-3.05,1.55-4.42,2.62-1.1.86-1.93,1.95-2.61,3.17-.62,1.12-1.05,2.1-1.34,3.12-.59,2.04-.89,5.08-.53,7.21.53-1.2,1.03-2.13,1.6-3,.86-1.33,1.75-2.34,2.75-3.27.73-.68,1.37-1.31,1.95-1.95,2.57-2.84,3.78-6.36,5.22-10.09h0Z"/><path class="cls-2" d="M21.79,93.49c-.51-3.1.66-8.89,1.5-11.18.6-1.63.94-3.38,1.24-5.19.52-3.19.83-6.77.69-9.4-1.09,1.42-2.18,2.8-3.36,4.71-2.43,4.21-3.5,8.35-2.28,13.37.46,1.9,1.21,6.12,2.21,7.68h0Z"/><path class="cls-2" d="M28.01,90.95c-.81,1.44-1.44,2.44-2.23,3.36-1.47,1.72-2.84,2.82-4.02,4.5-.95,1.35-1.55,2.82-1.95,4.38-.37,1.43-.57,2.64-.62,3.84-.1,2.4.36,5.75,1.3,7.87.26-1.48.55-2.67.92-3.81.57-1.75,1.26-3.16,2.08-4.54.6-1.01,1.12-1.92,1.58-2.83,2-4.02,2.37-8.23,2.95-12.77h0Z"/><path class="cls-2" d="M20.49,114.99c-1.35-3.1-1.6-9.72-1.29-12.48.22-1.96.13-3.96-.03-6-.27-3.6-.87-7.53-1.7-10.27-.79,1.93-1.59,3.83-2.35,6.31-1.5,5.42-1.57,10.24,1.03,15.11.98,1.84,2.86,6.04,4.34,7.32h0Z"/><path class="cls-2" d="M25.54,109.58c-.56,1.66-1.02,2.82-1.65,3.94-1.18,2.1-2.35,3.57-3.25,5.56-.72,1.6-1.06,3.23-1.19,4.9-.12,1.52-.11,2.79.05,4.01.32,2.43,1.37,5.66,2.67,7.55,0-1.55.08-2.82.26-4.06.27-1.9.71-3.5,1.29-5.09.43-1.16.79-2.21,1.08-3.25,1.31-4.54.94-8.86.73-13.55h0Z"/><path class="cls-2" d="M22.2,135.62c-1.89-2.76-3.29-9.32-3.47-12.15-.12-2.02-.56-4-1.07-6-.9-3.53-2.18-7.31-3.49-9.84-.46,2.14-.93,4.25-1.26,6.94-.56,5.82.22,10.66,3.67,14.86,1.3,1.59,3.92,5.3,5.62,6.2h0Z"/><path class="cls-2" d="M25.82,127.39c-.14,1.93-.31,3.3-.66,4.71-.66,2.63-1.49,4.6-1.88,7-.32,1.93-.24,3.74.06,5.51.28,1.62.62,2.92,1.1,4.11.97,2.37,2.89,5.3,4.73,6.72-.41-1.59-.65-2.94-.8-4.28-.22-2.06-.19-3.88,0-5.75.13-1.37.23-2.59.26-3.77.15-5.2-1.36-9.5-2.81-14.24h0Z"/><path class="cls-2" d="M29.21,155.52c-2.67-2.1-5.84-8.3-6.76-11.15-.66-2.04-1.63-3.9-2.68-5.76-1.85-3.29-4.17-6.67-6.18-8.76.09,2.39.16,4.74.53,7.64.95,6.21,3.02,10.9,7.68,13.86,1.76,1.12,5.43,3.92,7.42,4.17h0Z"/><path class="cls-2" d="M30.82,145.14c.39,2.12.6,3.65.61,5.3.03,3.08-.29,5.53-.05,8.26.2,2.19.79,4.09,1.61,5.86.75,1.61,1.48,2.85,2.32,3.92,1.69,2.13,4.57,4.43,6.93,5.18-.88-1.53-1.52-2.86-2.05-4.23-.82-2.1-1.29-4.06-1.62-6.13-.24-1.51-.48-2.86-.78-4.13-1.29-5.6-4.11-9.56-6.98-14.01h0Z"/><path class="cls-2" d="M42.32,173.71c-3.43-1.11-8.55-6.39-10.34-9.05-1.27-1.89-2.83-3.47-4.47-5.01-2.9-2.72-6.31-5.36-9.04-6.74.76,2.51,1.5,4.99,2.7,7.92,2.76,6.22,6.27,10.35,12.07,11.55,2.19.45,6.89,1.9,9.07,1.33h0Z"/><path class="cls-2" d="M41.31,161.79c1.05,1.95,1.74,3.39,2.26,5.03.97,3.07,1.37,5.66,2.46,8.28.88,2.1,2.07,3.75,3.48,5.16,1.28,1.28,2.43,2.21,3.64,2.91,2.43,1.39,6.16,2.44,8.88,2.16-1.39-1.14-2.47-2.2-3.45-3.34-1.5-1.75-2.59-3.5-3.57-5.43-.72-1.41-1.38-2.65-2.08-3.8-3.07-5.04-7.24-7.77-11.62-10.97h0Z"/><path class="cls-2" d="M62.12,185.37c-3.96.39-10.96-2.67-13.65-4.55-1.92-1.34-4.04-2.24-6.23-3.07-3.88-1.46-8.28-2.61-11.58-2.8,1.57,2.17,3.1,4.33,5.26,6.75,4.8,5.02,9.76,7.62,16.23,6.29,2.45-.5,7.83-1.11,9.97-2.63h0Z"/><path class="cls-2" d="M186.08,57.69c-5.42-4.95-11.07-12.44-20.67-17.52,7.03.06,18.09,6.41,20.67,17.52h0Z"/><path class="cls-2" d="M179.84,59.28c1.14.73,1.98,1.2,2.93,1.53,1.76.61,3.23.79,4.75,1.51,1.22.58,2.2,1.45,3.06,2.49.78.95,1.36,1.81,1.81,2.74.9,1.86,1.68,4.77,1.67,6.94-.71-1.05-1.35-1.84-2.04-2.56-1.05-1.1-2.09-1.87-3.22-2.55-.82-.49-1.55-.95-2.23-1.45-2.98-2.17-4.72-5.33-6.73-8.65h0Z"/><path class="cls-2" d="M194.08,74.56c0-3.17-2.06-8.57-3.25-10.61-.85-1.45-1.46-3.09-2.04-4.79-1.02-3.01-1.89-6.45-2.17-9.06,1.3,1.13,2.58,2.23,4.04,3.82,3.06,3.55,4.76,7.35,4.36,12.57-.15,1.97-.21,6.29-.95,8.07h0Z"/><path class="cls-2" d="M188.67,75.1c1,.99,1.75,1.65,2.63,2.2,1.63,1.02,3.05,1.55,4.42,2.62,1.1.86,1.93,1.95,2.61,3.17.62,1.12,1.05,2.1,1.34,3.12.59,2.04.89,5.08.53,7.21-.53-1.2-1.03-2.13-1.6-3-.86-1.33-1.75-2.34-2.75-3.27-.73-.68-1.37-1.31-1.95-1.95-2.57-2.84-3.78-6.36-5.22-10.09h0Z"/><path class="cls-2" d="M200.21,93.49c.51-3.1-.66-8.89-1.5-11.18-.6-1.63-.94-3.38-1.24-5.19-.52-3.19-.83-6.77-.69-9.4,1.09,1.42,2.18,2.8,3.36,4.71,2.43,4.21,3.5,8.35,2.28,13.37-.46,1.9-1.2,6.12-2.21,7.68h0Z"/><path class="cls-2" d="M193.99,90.95c.81,1.44,1.44,2.44,2.23,3.36,1.47,1.72,2.84,2.82,4.03,4.5.95,1.35,1.55,2.82,1.95,4.38.37,1.43.57,2.64.62,3.84.1,2.4-.36,5.75-1.3,7.87-.26-1.48-.55-2.67-.92-3.81-.57-1.75-1.26-3.16-2.08-4.54-.6-1.01-1.12-1.92-1.58-2.83-2-4.02-2.38-8.23-2.95-12.77h0Z"/><path class="cls-2" d="M201.51,114.99c1.35-3.1,1.6-9.72,1.29-12.48-.22-1.96-.13-3.96.03-6,.27-3.6.87-7.53,1.7-10.27.8,1.93,1.59,3.83,2.36,6.31,1.5,5.42,1.57,10.24-1.03,15.11-.98,1.84-2.86,6.04-4.34,7.32h0Z"/><path class="cls-2" d="M196.46,109.58c.56,1.66,1.02,2.82,1.65,3.94,1.18,2.1,2.35,3.57,3.25,5.56.72,1.6,1.06,3.23,1.19,4.9.12,1.52.11,2.79-.05,4.01-.32,2.43-1.37,5.66-2.67,7.55,0-1.55-.08-2.82-.26-4.06-.27-1.9-.71-3.5-1.29-5.09-.43-1.16-.79-2.21-1.08-3.25-1.31-4.54-.94-8.86-.73-13.55h0Z"/><path class="cls-2" d="M199.8,135.62c1.89-2.76,3.29-9.32,3.47-12.15.12-2.02.56-4,1.07-6,.9-3.53,2.18-7.31,3.49-9.84.46,2.14.93,4.25,1.26,6.94.56,5.82-.22,10.66-3.67,14.86-1.31,1.59-3.92,5.3-5.62,6.2h0Z"/><path class="cls-2" d="M196.18,127.39c.14,1.93.31,3.3.66,4.71.66,2.63,1.49,4.6,1.88,7,.32,1.93.25,3.74-.06,5.51-.28,1.62-.62,2.92-1.1,4.11-.97,2.37-2.89,5.3-4.73,6.72.41-1.59.65-2.94.8-4.28.22-2.06.19-3.88,0-5.75-.13-1.37-.23-2.59-.26-3.77-.15-5.2,1.36-9.5,2.81-14.24h0Z"/><path class="cls-2" d="M192.79,155.52c2.67-2.1,5.84-8.3,6.77-11.15.66-2.04,1.63-3.9,2.68-5.76,1.85-3.29,4.17-6.67,6.18-8.76-.09,2.39-.16,4.74-.53,7.64-.95,6.21-3.02,10.9-7.68,13.86-1.76,1.12-5.43,3.92-7.42,4.17h0Z"/><path class="cls-2" d="M191.18,145.14c-.39,2.12-.6,3.65-.62,5.3-.03,3.08.3,5.53.05,8.26-.2,2.19-.79,4.09-1.61,5.86-.75,1.61-1.48,2.85-2.33,3.92-1.69,2.13-4.57,4.43-6.93,5.18.88-1.53,1.52-2.86,2.05-4.23.81-2.1,1.29-4.06,1.62-6.13.24-1.51.48-2.86.78-4.13,1.29-5.6,4.11-9.56,6.98-14.01h0Z"/><path class="cls-2" d="M179.68,173.71c3.43-1.11,8.55-6.39,10.34-9.05,1.27-1.89,2.83-3.47,4.47-5.01,2.9-2.72,6.31-5.36,9.04-6.74-.76,2.51-1.5,4.99-2.7,7.92-2.76,6.22-6.28,10.35-12.07,11.55-2.19.45-6.89,1.9-9.07,1.33h0Z"/><path class="cls-2" d="M180.69,161.79c-1.05,1.95-1.74,3.39-2.26,5.03-.97,3.07-1.37,5.66-2.46,8.28-.88,2.1-2.07,3.75-3.48,5.16-1.28,1.28-2.43,2.21-3.64,2.91-2.43,1.39-6.16,2.44-8.88,2.16,1.39-1.14,2.47-2.2,3.45-3.34,1.5-1.75,2.59-3.5,3.57-5.43.72-1.41,1.38-2.65,2.08-3.8,3.07-5.04,7.24-7.77,11.62-10.97h0Z"/><path class="cls-2" d="M159.88,185.37c3.96.39,10.96-2.67,13.65-4.55,1.92-1.34,4.04-2.24,6.24-3.07,3.88-1.46,8.28-2.61,11.58-2.8-1.57,2.17-3.1,4.33-5.26,6.75-4.8,5.02-9.76,7.62-16.24,6.29-2.45-.5-7.83-1.11-9.97-2.63h0Z"/></svg>