<?xml version="1.0" encoding="UTF-8"?><svg id="txt" xmlns="http://www.w3.org/2000/svg" viewBox="0 0 222 222"><defs><style>.cls-1{fill:#e8be35;}.cls-2{fill-rule:evenodd;}.cls-2,.cls-3{fill:#fff;}.cls-4{fill:none;stroke:#fff;stroke-miterlimit:10;}</style></defs><path class="cls-3" d="M51,99.7h-3.86v-5.17h4.46v-1.97h-5.66v-1.43h5.66v-2.52h2v2.52h5.49v1.43h-5.49v1.97h4.46v5.17h-4.46v.75c1.34.54,2.8,1.29,4.26,2.35l-.94,1.73c-1.06-.92-2.26-1.97-3.31-2.86v4.56h-2v-4.45c-1.86,2.58-4.2,4.25-5.69,5.1l-.46-.92c1.6-1.22,3.91-3.47,5.54-6.26ZM59.17,117.54h11.4v1.43h-25.01v-1.43h5.17v-6.63h2.09v6.63h4.2v-8.87h-9.57v-1.43h21.18v1.43h-9.46v3.2h7.46v1.39h-7.46v4.28ZM49,98.44h2.6v-2.62h-2.6v2.62ZM53.6,98.44h2.6v-2.62h-2.6v2.62ZM58.37,98c1.4-2.28,2.54-5.51,3.23-9.49l1.97.58c-.26,1.16-.63,2.45-1.09,3.71h8.03v1.43h-2.46c-.29,1.87-.91,4.32-2.49,6.59,1.52,1.26,3.32,2.14,5.37,2.75l-.91,2.52c-2.12-.81-4.06-1.94-5.69-3.74-1.6,1.7-3.92,3.2-7.2,4.11l-.37-1.02c2.97-1.19,5.03-2.79,6.46-4.59-.88-1.33-1.63-2.96-2.17-5-.6,1.05-1.26,2.04-2.03,2.82l-.66-.68ZM61.89,94.22l-.2.41c.6,1.94,1.43,3.5,2.52,4.79,1-1.7,1.51-3.5,1.8-5.2h-4.12Z"/><path class="cls-3" d="M104.72,101.36l-1.37,3.26c-2.97-1.43-7.97-5.24-11.46-12.54-2.74,5.34-7.89,10.5-12.92,13.16l-.49-1.02c5.77-4.15,9.86-10.06,11.89-15.91l2.69,1.12c-.17.48-.34.95-.57,1.39,4.12,6.73,8.97,9.25,12.23,10.54ZM83.51,107.38h16.18v12.65h-2.29v-2.41h-11.6v2.48h-2.29v-12.71ZM97.83,101.43v1.43h-12.89v-1.43h12.89ZM85.8,116.18h11.6v-7.38h-11.6v7.38Z"/><path class="cls-3" d="M128.69,106.19v2.24h6.4v11.8h-2.09v-1.29h-15.38v1.43h-2.09v-11.93h6.46v-2.24h-9.26v-1.39h24.92v1.39h-8.97ZM114.31,91.13h-.94v-1.29h12.78v1.29h-7.15l1.29.58c-.17.44-.37.85-.57,1.26h5.26v1.09h-2.94c0,.75-.06,1.46-.12,2.11h3.34v1.12h-3.52c-.06.17-.09.34-.14.51,1.06.54,2.29,1.33,3.29,2.24l-1.03,1.53c-.8-.99-1.74-2.01-2.6-2.82-.66,1.43-1.86,2.45-4.03,3.03l-.31-.82c2-.99,2.86-1.94,3.2-3.67h-3.17v-1.12h3.31c.06-.61.09-1.29.09-2.11h-1.29c-.49.75-1.06,1.43-1.63,2.04l-.57-.65c.8-1.22,1.4-2.69,1.89-4.32h-2.63v9.18c0,1.22.08,1.63,1.23,1.73,1.88.17,3.8.2,5.57.03,1.31-.1,1.77-.27,2.49-.95l.8,1.29c-.83.88-1.77,1.09-3.12,1.26-1.91.24-3.94.21-5.89-.03-2.52-.27-2.89-.99-2.89-3.43v-9.08ZM117.63,109.83v5h15.38v-1.33h-3.2c-2.66,0-2.89-.68-2.89-2.62v-1.05h-3.12c-.31,2.14-1.37,3.81-5.06,4.42l-.26-.99c2.34-.82,3.14-1.77,3.4-3.43h-4.26ZM133.01,117.58v-1.53h-15.38v1.53h15.38ZM126.92,106.19h-3v2.24h3v-2.24ZM125.29,95.45c1.71-1.16,1.83-2.69,1.83-4.25v-1.46h6.35v2.75c0,.71.17.88,1.14.88.69-.03,1.29-.13,1.71-.75l.8,1.46c-.63.78-1.8,1.02-2.8,1.02-2.03,0-2.54-.51-2.54-2.07v-2.11h-2.91c.03,2.28-.66,4.15-2.77,5.17h6.52l.51-.38,1.63,1.16c-.69,1.63-1.57,3.03-2.63,4.15,1.17.44,2.69.75,4.66.88l-.66,2.07c-2.29-.27-4-.85-5.31-1.77-1.37,1.05-3,1.73-4.89,2.07l-.26-.88c1.69-.51,3-1.22,4.06-2.07-1.06-1.09-1.8-2.45-2.4-4.08h-1.23v-1.16l-.46.2-.34-.85ZM132.58,97.25h-4.43c.69,1.33,1.46,2.35,2.6,3.09.83-.95,1.43-2.01,1.83-3.09ZM128.69,109.83v.58c0,1.05.2,1.43,1.54,1.43h2.77v-2.01h-4.32Z"/><path class="cls-3" d="M163.09,110.85v6.36c0,2.45-1.92,4.22-6.72,1.39l.29-1.05c3.66.88,4.43.65,4.43-.85v-5.85h-5.23v-6.22c-.83.65-1.74,1.26-2.77,1.8l-.43-.98c1.48-.99,2.74-2.07,3.8-3.26-.77-1.02-1.63-2.07-2.29-2.82l.43-.82c1,.48,2.06,1.26,3.06,2.14.6-.85,1.12-1.7,1.54-2.58h-5.57v-1.39h6.2c.43-1.02.71-2.01.92-2.96h-8v5.17c0,9.93-.6,17.03-4.26,21.59l-.71-.71c1.92-3.54,2.54-8.06,2.74-13.8-1,1.84-2.34,3.94-3.29,5.07l-1.63-2.07c1.31-1.05,3.46-3.16,4.97-5.17.03-1.56.03-3.23.03-4.96v-6.53h10.86c-1.48-1.16-3.29-2.45-4.23-3.09l.34-1.02c1.46.41,4.26,1.43,5.8,2.52l-.8,1.6h9.03v1.43h-10.26l1.63.61c-.26.75-.54,1.53-.89,2.35h8.63v1.39h-7.17c.69,1.16,1.54,2.11,2.51,2.86.69-.92,1.2-1.77,1.66-2.65l1.63,1.43c-.8.82-1.57,1.39-2.37,1.9,1.51.99,3.17,1.63,4.86,2.18l-1.09,2.48c-1.06-.48-2.14-1.02-3.2-1.77v6.32h-4.46ZM147.97,102.75c-.54-2.35-1.29-4.86-2.03-7.07l.83-.51c1.17,1.73,2.43,4.15,3.29,6.46l-2.09,1.12ZM152.32,118.84l-.46-.88c2.03-1.43,3.92-3.54,5.4-6.15l1.74,1.46c-2.03,2.58-4.23,4.35-6.69,5.58ZM165.55,103.81h-7.69v2.18h7.69v-2.18ZM157.86,109.52h7.69v-2.28h-7.69v2.28ZM158.26,102.48h7c-1.06-1.16-2-2.58-2.77-4.38h-1.09c-.77,1.5-1.8,2.99-3.14,4.38ZM164.72,111.7c1.94,1.22,4.26,3.13,6.14,5.1l-1.6,2.01c-1.66-2.48-3.37-4.55-5-6.26l.46-.85Z"/><path class="cls-3" d="M110.41,155.47l-1.74,3.33c-3.03-1.7-9.35-8.23-10.77-20.2-1.26,10.37-6.23,17.47-13.06,20.43l-.46-1.09c5.69-3.4,9.86-9.28,11.06-19.69h-10.14v-1.7h10.32c.06-.82.12-1.67.14-2.52.06-2.07.09-4.52.12-6.77l2.46.1c0,2.65-.03,5.13-.14,7.75l-.09,1.43h11.06v1.7h-10.32c1.92,9.55,7.2,14.89,11.58,17.2Z"/><path class="cls-3" d="M143.61,155.85l-1.17,2.99c-5.14-1.16-9.29-3.98-11.35-8.97-1.77,5.71-5.83,8.26-12.52,9.38l-.29-1.05c5.92-1.46,9.03-4.04,10.43-8.4h-10.23v-1.39h10.6c.26-1.12.4-2.38.49-3.74l2.43.27c-.11,1.26-.29,2.41-.51,3.47h3.97c-.71-.85-1.71-2.04-2.49-2.86l.4-.78c1,.44,2.51,1.39,3.57,2.35l-.86,1.29h7.23v1.39h-11.15c2.46,3.84,7.03,5.51,11.43,6.05ZM121.52,139.05h-2.57v-1.36h6.8v-3.13h-3.03v1.7h-1.94v-8.26h1.94v5.2h3.03v-5.68h2.06v19h-2.06v-7.48h-2.26c-.03,3.33-1.26,6.56-4.2,8.29l-.46-.88c2-1.63,2.6-4.08,2.69-7.41ZM138.87,130.79h-5.12c-.17.2-.37.41-.54.58.71.41,1.66,1.05,2.31,1.63l-1.09,1.43c-.51-.75-1.31-1.77-1.89-2.41-.48.47-1.03.92-1.6,1.32.54.48,1.26,1.19,1.8,1.94l-1.29,1.12c-.4-.88-.86-1.84-1.26-2.55-.54.34-1.09.65-1.69.92l-.37-.88c2.71-1.9,4.43-4.28,5.52-6.6l2.03.85c-.29.48-.57.92-.91,1.39h4.4l.52-.41,2.09,1.39c-1.66,2.72-5.06,5.81-10.03,7.62h6.37v-2.55h1.97v2.55h3.34v1.33h-3.34v4.18c0,2.28-2.17,3.2-5.29.85l.26-.99c2.77.65,3.06.48,3.06-.85v-3.2h-8.17v-.75c-.52.13-1.06.27-1.6.37l-.2-1.05c4.66-1.12,8.8-4.32,10.72-7.24ZM135.09,142.18l-1.17,1.73c-.77-1.05-1.89-2.35-2.77-3.3l.43-.85c1.06.51,2.6,1.53,3.52,2.41Z"/><path class="cls-1" d="M117.2,66.88h-.45c-.15,0-.25-.08-.3-.25l-4.84-11.61h-18.3l-4.83,11.61c-.05.16-.17.25-.35.25h-.4l14.48-34.72h.5l14.48,34.72ZM111.42,54.54l-8.55-20.53c-.08-.18-.15-.36-.21-.52-.06-.17-.12-.34-.19-.52-.07.18-.13.36-.19.52-.06.16-.13.34-.21.52l-8.55,20.53h17.9Z"/><path class="cls-1" d="M129.57,66.88h-.6v-34.72h.6v34.72Z"/><path class="cls-3" d="M117.2,66.88h-.45c-.15,0-.25-.08-.3-.25l-4.84-11.61h-18.3l-4.83,11.61c-.05.16-.17.25-.35.25h-.4l14.48-34.72h.5l14.48,34.72ZM111.42,54.54l-8.55-20.53c-.08-.18-.15-.36-.21-.52-.06-.17-.12-.34-.19-.52-.07.18-.13.36-.19.52-.06.16-.13.34-.21.52l-8.55,20.53h17.9Z"/><path class="cls-3" d="M129.57,66.88h-.6v-34.72h.6v34.72Z"/><path class="cls-4" d="M117.2,66.88h-.45c-.15,0-.25-.08-.3-.25l-4.84-11.61h-18.3l-4.83,11.61c-.05.16-.17.25-.35.25h-.4l14.48-34.72h.5l14.48,34.72ZM111.42,54.54l-8.55-20.53c-.08-.18-.15-.36-.21-.52-.06-.17-.12-.34-.19-.52-.07.18-.13.36-.19.52-.06.16-.13.34-.21.52l-8.55,20.53h17.9Z"/><path class="cls-4" d="M129.57,66.88h-.6v-34.72h.6v34.72Z"/><polygon class="cls-3" points="111 179.12 113.77 184.73 119.96 185.63 115.48 189.99 116.54 196.16 111 193.25 105.46 196.16 106.52 189.99 102.04 185.63 108.23 184.73 111 179.12"/><polygon class="cls-3" points="130.48 179.12 132.35 182.91 136.53 183.52 133.51 186.46 134.22 190.62 130.48 188.66 126.75 190.62 127.46 186.46 124.44 183.52 128.62 182.91 130.48 179.12"/><polygon class="cls-3" points="91.52 179.12 93.38 182.91 97.56 183.52 94.54 186.46 95.25 190.62 91.52 188.66 87.78 190.62 88.49 186.46 85.47 183.52 89.65 182.91 91.52 179.12"/><path class="cls-2" d="M35.92,57.69c5.42-4.95,11.07-12.44,20.67-17.52-7.03.06-18.09,6.41-20.67,17.52h0Z"/><path class="cls-2" d="M42.16,59.28c-1.14.73-1.98,1.2-2.93,1.53-1.76.61-3.23.79-4.75,1.51-1.22.58-2.2,1.45-3.06,2.49-.78.95-1.36,1.81-1.81,2.74-.9,1.86-1.68,4.77-1.67,6.94.71-1.05,1.36-1.84,2.04-2.56,1.05-1.1,2.09-1.87,3.22-2.55.82-.49,1.55-.95,2.23-1.45,2.97-2.17,4.72-5.33,6.73-8.65h0Z"/><path class="cls-2" d="M27.92,74.56c0-3.17,2.06-8.57,3.25-10.61.85-1.45,1.46-3.09,2.04-4.79,1.02-3.01,1.89-6.45,2.17-9.06-1.3,1.13-2.58,2.23-4.04,3.82-3.06,3.55-4.76,7.35-4.36,12.57.15,1.97.21,6.29.95,8.07h0Z"/><path class="cls-2" d="M33.33,75.1c-1,.99-1.75,1.65-2.63,2.2-1.63,1.02-3.05,1.55-4.42,2.62-1.1.86-1.93,1.95-2.61,3.17-.62,1.12-1.05,2.1-1.34,3.12-.59,2.04-.89,5.08-.53,7.21.53-1.2,1.03-2.13,1.6-3,.86-1.33,1.75-2.34,2.75-3.27.73-.68,1.37-1.31,1.95-1.95,2.57-2.84,3.78-6.36,5.22-10.09h0Z"/><path class="cls-2" d="M21.79,93.49c-.51-3.1.66-8.89,1.5-11.18.6-1.63.94-3.38,1.24-5.19.52-3.19.83-6.77.69-9.4-1.09,1.42-2.18,2.8-3.36,4.71-2.43,4.21-3.5,8.35-2.28,13.37.46,1.9,1.21,6.12,2.21,7.68h0Z"/><path class="cls-2" d="M28.01,90.95c-.81,1.44-1.44,2.44-2.23,3.36-1.47,1.72-2.84,2.82-4.02,4.5-.95,1.35-1.55,2.82-1.95,4.38-.37,1.43-.57,2.64-.62,3.84-.1,2.4.36,5.75,1.3,7.87.26-1.48.55-2.67.92-3.81.57-1.75,1.26-3.16,2.08-4.54.6-1.01,1.12-1.92,1.58-2.83,2-4.02,2.38-8.23,2.95-12.77h0Z"/><path class="cls-2" d="M20.49,114.99c-1.35-3.1-1.6-9.72-1.29-12.48.22-1.96.13-3.96-.03-6-.27-3.6-.87-7.53-1.7-10.27-.79,1.93-1.59,3.83-2.35,6.31-1.5,5.42-1.57,10.24,1.03,15.11.98,1.84,2.86,6.04,4.34,7.32h0Z"/><path class="cls-2" d="M25.54,109.58c-.56,1.66-1.02,2.82-1.65,3.94-1.18,2.1-2.35,3.57-3.25,5.56-.72,1.6-1.06,3.23-1.19,4.9-.12,1.52-.11,2.79.05,4.01.32,2.43,1.37,5.66,2.67,7.55,0-1.55.08-2.82.26-4.06.27-1.9.71-3.5,1.29-5.09.43-1.16.79-2.21,1.08-3.25,1.31-4.54.94-8.86.73-13.55h0Z"/><path class="cls-2" d="M22.2,135.62c-1.89-2.76-3.29-9.32-3.47-12.15-.12-2.02-.56-4-1.07-6-.9-3.53-2.18-7.31-3.49-9.84-.46,2.14-.93,4.25-1.26,6.94-.56,5.82.22,10.66,3.67,14.86,1.3,1.59,3.92,5.3,5.62,6.2h0Z"/><path class="cls-2" d="M25.82,127.39c-.14,1.93-.31,3.3-.66,4.71-.66,2.63-1.49,4.6-1.88,7-.32,1.93-.24,3.74.06,5.51.28,1.62.62,2.92,1.1,4.11.97,2.37,2.89,5.3,4.73,6.72-.41-1.59-.65-2.94-.8-4.28-.22-2.06-.19-3.88,0-5.75.13-1.37.23-2.59.26-3.77.15-5.2-1.36-9.5-2.81-14.24h0Z"/><path class="cls-2" d="M29.21,155.52c-2.67-2.1-5.84-8.3-6.77-11.15-.66-2.04-1.63-3.9-2.68-5.76-1.85-3.29-4.17-6.67-6.18-8.76.09,2.39.16,4.74.53,7.64.95,6.21,3.02,10.9,7.68,13.86,1.76,1.12,5.43,3.92,7.42,4.17h0Z"/><path class="cls-2" d="M30.82,145.14c.39,2.12.6,3.65.61,5.3.03,3.08-.29,5.53-.05,8.26.2,2.19.79,4.09,1.61,5.86.75,1.61,1.48,2.85,2.32,3.92,1.69,2.13,4.57,4.43,6.93,5.18-.88-1.53-1.52-2.86-2.05-4.23-.82-2.1-1.29-4.06-1.62-6.13-.24-1.51-.48-2.86-.78-4.13-1.29-5.6-4.11-9.56-6.98-14.01h0Z"/><path class="cls-2" d="M42.32,173.71c-3.43-1.11-8.55-6.39-10.34-9.05-1.27-1.89-2.83-3.47-4.47-5.01-2.9-2.72-6.31-5.36-9.04-6.74.76,2.51,1.5,4.99,2.7,7.92,2.76,6.22,6.27,10.35,12.07,11.55,2.19.45,6.89,1.9,9.07,1.33h0Z"/><path class="cls-2" d="M41.31,161.79c1.05,1.95,1.74,3.39,2.26,5.03.97,3.07,1.37,5.66,2.46,8.28.88,2.1,2.07,3.75,3.48,5.16,1.28,1.28,2.43,2.21,3.64,2.91,2.43,1.39,6.16,2.44,8.88,2.16-1.39-1.14-2.47-2.2-3.45-3.34-1.5-1.75-2.59-3.5-3.57-5.43-.72-1.41-1.38-2.65-2.08-3.8-3.07-5.04-7.24-7.77-11.62-10.97h0Z"/><path class="cls-2" d="M62.12,185.37c-3.96.39-10.96-2.67-13.65-4.55-1.92-1.34-4.04-2.24-6.23-3.07-3.88-1.46-8.28-2.61-11.58-2.8,1.57,2.17,3.1,4.33,5.26,6.75,4.8,5.02,9.76,7.62,16.23,6.29,2.45-.5,7.83-1.11,9.97-2.63h0Z"/><path class="cls-2" d="M186.08,57.69c-5.42-4.95-11.07-12.44-20.67-17.52,7.03.06,18.09,6.41,20.67,17.52h0Z"/><path class="cls-2" d="M179.84,59.28c1.14.73,1.98,1.2,2.93,1.53,1.76.61,3.23.79,4.75,1.51,1.22.58,2.2,1.45,3.06,2.49.78.95,1.36,1.81,1.81,2.74.9,1.86,1.68,4.77,1.67,6.94-.71-1.05-1.35-1.84-2.04-2.56-1.05-1.1-2.09-1.87-3.22-2.55-.82-.49-1.55-.95-2.23-1.45-2.98-2.17-4.72-5.33-6.73-8.65h0Z"/><path class="cls-2" d="M194.08,74.56c0-3.17-2.06-8.57-3.25-10.61-.85-1.45-1.46-3.09-2.04-4.79-1.02-3.01-1.89-6.45-2.17-9.06,1.3,1.13,2.58,2.23,4.04,3.82,3.06,3.55,4.76,7.35,4.36,12.57-.15,1.97-.21,6.29-.95,8.07h0Z"/><path class="cls-2" d="M188.67,75.1c1,.99,1.75,1.65,2.63,2.2,1.63,1.02,3.05,1.55,4.42,2.62,1.1.86,1.93,1.95,2.61,3.17.62,1.12,1.05,2.1,1.34,3.12.59,2.04.89,5.08.53,7.21-.53-1.2-1.03-2.13-1.6-3-.86-1.33-1.75-2.34-2.75-3.27-.73-.68-1.37-1.31-1.95-1.95-2.57-2.84-3.78-6.36-5.22-10.09h0Z"/><path class="cls-2" d="M200.21,93.49c.51-3.1-.66-8.89-1.5-11.18-.6-1.63-.94-3.38-1.24-5.19-.52-3.19-.83-6.77-.69-9.4,1.09,1.42,2.18,2.8,3.36,4.71,2.43,4.21,3.5,8.35,2.28,13.37-.46,1.9-1.2,6.12-2.21,7.68h0Z"/><path class="cls-2" d="M193.99,90.95c.81,1.44,1.44,2.44,2.23,3.36,1.47,1.72,2.84,2.82,4.03,4.5.95,1.35,1.55,2.82,1.95,4.38.37,1.43.57,2.64.62,3.84.1,2.4-.36,5.75-1.3,7.87-.26-1.48-.55-2.67-.92-3.81-.57-1.75-1.26-3.16-2.08-4.54-.6-1.01-1.12-1.92-1.58-2.83-2-4.02-2.38-8.23-2.95-12.77h0Z"/><path class="cls-2" d="M201.51,114.99c1.35-3.1,1.6-9.72,1.29-12.48-.22-1.96-.13-3.96.03-6,.27-3.6.87-7.53,1.7-10.27.8,1.93,1.59,3.83,2.36,6.31,1.5,5.42,1.57,10.24-1.03,15.11-.98,1.84-2.86,6.04-4.34,7.32h0Z"/><path class="cls-2" d="M196.46,109.58c.56,1.66,1.02,2.82,1.65,3.94,1.18,2.1,2.35,3.57,3.25,5.56.72,1.6,1.06,3.23,1.19,4.9.12,1.52.11,2.79-.05,4.01-.32,2.43-1.37,5.66-2.67,7.55,0-1.55-.08-2.82-.26-4.06-.27-1.9-.71-3.5-1.29-5.09-.43-1.16-.79-2.21-1.08-3.25-1.31-4.54-.94-8.86-.73-13.55h0Z"/><path class="cls-2" d="M199.8,135.62c1.89-2.76,3.29-9.32,3.47-12.15.12-2.02.56-4,1.07-6,.9-3.53,2.18-7.31,3.49-9.84.46,2.14.93,4.25,1.26,6.94.56,5.82-.22,10.66-3.67,14.86-1.31,1.59-3.92,5.3-5.62,6.2h0Z"/><path class="cls-2" d="M196.18,127.39c.14,1.93.31,3.3.66,4.71.66,2.63,1.49,4.6,1.88,7,.32,1.93.25,3.74-.06,5.51-.28,1.62-.62,2.92-1.1,4.11-.97,2.37-2.89,5.3-4.73,6.72.41-1.59.65-2.94.8-4.28.22-2.06.19-3.88,0-5.75-.13-1.37-.23-2.59-.26-3.77-.15-5.2,1.36-9.5,2.81-14.24h0Z"/><path class="cls-2" d="M192.79,155.52c2.67-2.1,5.84-8.3,6.77-11.15.66-2.04,1.63-3.9,2.68-5.76,1.85-3.29,4.17-6.67,6.18-8.76-.09,2.39-.16,4.74-.53,7.64-.95,6.21-3.02,10.9-7.68,13.86-1.76,1.12-5.43,3.92-7.42,4.17h0Z"/><path class="cls-2" d="M191.18,145.14c-.39,2.12-.6,3.65-.62,5.3-.03,3.08.3,5.53.05,8.26-.2,2.19-.79,4.09-1.61,5.86-.75,1.61-1.48,2.85-2.33,3.92-1.69,2.13-4.57,4.43-6.93,5.18.88-1.53,1.52-2.86,2.05-4.23.81-2.1,1.29-4.06,1.62-6.13.24-1.51.48-2.86.78-4.13,1.29-5.6,4.11-9.56,6.98-14.01h0Z"/><path class="cls-2" d="M179.68,173.71c3.43-1.11,8.55-6.39,10.34-9.05,1.27-1.89,2.83-3.47,4.47-5.01,2.9-2.72,6.31-5.36,9.04-6.74-.76,2.51-1.5,4.99-2.7,7.92-2.76,6.22-6.28,10.35-12.07,11.55-2.19.45-6.89,1.9-9.07,1.33h0Z"/><path class="cls-2" d="M180.69,161.79c-1.05,1.95-1.74,3.39-2.26,5.03-.97,3.07-1.37,5.66-2.46,8.28-.88,2.1-2.07,3.75-3.48,5.16-1.28,1.28-2.43,2.21-3.64,2.91-2.43,1.39-6.16,2.44-8.88,2.16,1.39-1.14,2.47-2.2,3.45-3.34,1.5-1.75,2.59-3.5,3.57-5.43.72-1.41,1.38-2.65,2.08-3.8,3.07-5.04,7.23-7.77,11.62-10.97h0Z"/><path class="cls-2" d="M159.88,185.37c3.96.39,10.96-2.67,13.65-4.55,1.92-1.34,4.04-2.24,6.24-3.07,3.88-1.46,8.28-2.61,11.58-2.8-1.57,2.17-3.1,4.33-5.26,6.75-4.8,5.02-9.76,7.62-16.24,6.29-2.45-.5-7.83-1.11-9.97-2.63h0Z"/></svg>