<?xml version="1.0" encoding="UTF-8"?>
<svg id="_圖層_2" xmlns="http://www.w3.org/2000/svg" version="1.1" viewBox="0 0 1672.2 919.9">
  <!-- Generator: Adobe Illustrator 29.5.0, SVG Export Plug-In . SVG Version: 2.1.0 Build 137)  -->
  <defs>
    <style>
      .st0 {
        fill: #c18500;
      }
    </style>
  </defs>
  <path class="st0" d="M1517.7,143.2l7.5-.9,43.7,86.3-8.8,1.1-12.2-24.6-37.2,4.6-5.9,26.8-8.8,1.1,21.6-94.3h0ZM1522.9,154.3l-10.3,47,31.7-3.9-21.4-43.1Z"/>
  <path class="st0" d="M1593.6,133.9l11.1,90.3-8.5,1.1-11.1-90.3,8.5-1.1Z"/>
  <path class="st0" d="M1001.8,56.7c3.5-4.2,5.9-7.9,7.3-11.2,1.4-3.2,1.9-6.3,1.6-9.3-.4-3.3-1.8-5.9-4.1-7.5s-5-2.3-8.2-2-5.8,1.9-7.9,4.7c-2.1,2.7-3.5,6.5-4.2,11.5,0,0-.2.1-.5.2-.7,0-1,0-1-.4l2.4-18.1c0-.2.1-.3.5-.3.2,0,.5,0,.7.1.2,0,.3.2.2.3,0,.3,0,.7,0,1.2.2,1.3.8,1.8,2,1.7.7,0,1.9-.5,3.5-1.3,1.2-.5,2.5-1,3.9-1.5s2.9-.8,4.3-1c4-.5,7.3.2,9.9,2.1,2.6,1.9,4.1,4.6,4.6,8.2.3,2.7-.2,5.5-1.5,8.4s-3.6,6.3-6.8,10.1-7.8,8.7-13.7,14.5c-.3.3-.4.5-.2.6.1.2.4.2.8.1,9.3-1.1,15.7-2.1,19.1-2.8,3.4-.7,5.8-1.7,7.1-2.9s2.1-3.3,2.4-6.2c0-.2.3-.3.8-.3.4,0,.7,0,.7.2l-.2,11.9c0,.3,0,.6-.2.9-.2.3-.4.5-.7.5l-36.3,4.5c-.3,0-.6,0-.9-.4s-.3-.6-.1-.9c6.4-6.3,11.3-11.6,14.8-15.8h0Z"/>
  <path class="st0" d="M1046.6,65c-4-1.7-7.2-4.3-9.7-7.8-2.5-3.5-4.1-7.7-4.7-12.4-.6-4.7,0-9,1.6-12.9,1.6-3.9,4.1-7.1,7.6-9.6s7.5-4.1,12.2-4.6c4.6-.6,8.8,0,12.7,1.6,3.8,1.7,7,4.2,9.5,7.7s4,7.6,4.6,12.2c.6,4.7,0,9-1.5,13s-4,7.2-7.4,9.8c-3.4,2.5-7.3,4.1-11.9,4.7-4.6.6-8.9,0-12.8-1.7h0ZM1071.3,57.9c2.1-4.2,2.7-9.6,1.9-16.3-1-7.9-3.4-13.8-7.4-17.6-3.9-3.8-8.4-5.4-13.5-4.8-5,.6-8.7,3.1-11,7.5-2.3,4.4-3.1,9.8-2.3,16.2.6,4.6,1.8,8.7,3.8,12.2,2,3.5,4.5,6.2,7.5,8s6.4,2.4,10.2,2c5.1-.6,8.7-3,10.8-7.2h0Z"/>
  <path class="st0" d="M1106.5,43.9c3.5-4.2,5.9-7.9,7.3-11.2,1.4-3.2,1.9-6.3,1.6-9.3-.4-3.3-1.8-5.9-4.1-7.5-2.3-1.7-5-2.3-8.2-1.9-3.2.4-5.8,1.9-7.9,4.7s-3.5,6.5-4.2,11.5c0,0-.2.1-.5.2-.7,0-1.1,0-1-.4l2.4-18.1c0-.2.1-.3.4-.3.2,0,.5,0,.7.1.2,0,.3.2.2.3,0,.3,0,.7,0,1.2.2,1.3.8,1.8,2,1.7.7,0,1.9-.5,3.5-1.3,1.2-.5,2.5-.9,3.9-1.4,1.5-.5,2.9-.8,4.3-1,4-.5,7.3.2,9.9,2.1,2.6,1.9,4.1,4.6,4.6,8.2.3,2.7-.2,5.5-1.4,8.4-1.3,2.9-3.6,6.3-6.8,10.1s-7.8,8.7-13.7,14.5c-.3.3-.4.5-.2.6.1.2.4.2.8.1,9.3-1.1,15.7-2.1,19.1-2.8,3.4-.7,5.8-1.7,7.1-2.9,1.3-1.2,2.1-3.3,2.4-6.2,0-.2.3-.3.8-.3.4,0,.7,0,.7.2l-.2,11.9c0,.3,0,.6-.2.9-.2.3-.4.5-.7.5l-36.3,4.5c-.3,0-.6,0-.9-.4-.3-.3-.3-.6-.1-1,6.4-6.3,11.3-11.6,14.8-15.8h0Z"/>
  <path class="st0" d="M1143.1,16.2l-.8,15.1c11-1.3,19.2-.2,24.9,3.1,5.6,3.3,8.8,8.4,9.7,15.3.6,4.5,0,8.8-1.9,12.7-1.8,4-4.9,8-9.4,12s-10.5,8.4-18,13.2h-.1c-.3,0-.6,0-.8-.4-.2-.3-.2-.6,0-.8,9.5-6.1,16-11.8,19.5-17.3s4.9-11,4.2-16.6c-.8-6.6-3.7-11.4-8.8-14.5s-11.9-4.1-20.4-3c-.4,0-.7,0-1-.3s-.4-.6-.4-1l1.2-21.7c0-.6,0-.9.2-1.1.1-.1.5-.3,1.2-.4,9.9-2.4,16.5-4.1,19.8-5,3.3-.9,5.5-1.7,6.4-2.3s1.5-1.6,1.8-2.8c0-.2.3-.4.7-.4.4,0,.6.1.6.5l-1.4,7.9c-.2,1-.5,1.6-.9,1.9-.4.3-1.1.5-2.2.6l-22.4,3.2c-1,.1-1.6.8-1.6,2h0Z"/>
  <path d="M1535.7,265.7l-2.5.3-.5-3.8,34.9-4.3.5,3.8-27.7,3.4,2.6,21.5c.3,2.9,1.3,3.7,4.1,3.4l16.8-2.1c2-.2,5.6-.8,7-1.3.3,1.2.7,2.8,1,3.8-1.3.6-4.3,1-7.2,1.4l-17.3,2.1c-6.2.8-8.4-1.1-9.1-6.9l-2.6-21.4h0ZM1581.3,296.7l.4,3.6,18.9-2.3,3.3,26.5-5.6.7-.4-3.1-45.6,5.6.4,3.1-5.4.7-3.3-26.5,19.8-2.4-.4-3.6-27.9,3.4-.5-4.1,72.1-8.9.5,4.1-26.4,3.2h0ZM1558.1,278.1v.2c3.8,1.5,8.2,3.9,10.7,5.5l-2.2,3.1c-2.2-1.6-6-3.7-9.5-5.4-1.3,2.7-3.8,5.5-8.7,8.1-.7-1-2-2-3-2.7,5.7-2.5,7.8-5.5,8.5-8.3l-9.9,1.2-.4-3.4,10.6-1.3v-.5c0,0-.5-3.7-.5-3.7l-4.8.6c-.8,1.5-1.6,2.8-2.6,3.9-.8-.5-2.5-1.2-3.5-1.5,2.2-2.8,3.9-6,4.7-9.4l3.8.5c-.2.9-.5,1.8-.9,2.8l15.8-1.9.4,3.3-9,1.1.5,3.8v.5c0,0,10.5-1.3,10.5-1.3l.4,3.4-10.9,1.3h0ZM1597.5,318.5l-1.1-9h-.8c0,.1-10.2,1.4-10.2,1.4-5.6.7-7.2,0-7.7-4.1l-.3-2.3-8.5,1c-.4,4-3.8,7.5-14.8,10.8-.7-1-2.1-2.5-3.1-3.2,9.1-2.2,12.2-4.6,12.9-7l-14.1,1.7,2,16.3,45.6-5.6h0ZM1558,316.9l33-4.1.4,3.4-33,4.1-.4-3.4ZM1571.8,273c-.8-1-2.7-2.7-3.7-3.2,5.7-3.1,6.4-6,6.1-8.7l-.5-4,18.9-2.3.9,7.4c.2,1.5.4,1.9,1.3,1.8l3.5-.4c.9-.1,2.4-.4,3.2-.6.2,1.1.6,2.8.9,3.9-.8.4-2.2.6-3.4.8l-4.4.5c-4.3.5-5.4-1-5.9-5.4l-.4-3-9.4,1.1c.4,3.6-.6,7.9-5.9,11.5l21.6-2.6.9-.4,3.1,1c-1.4,4.5-3.8,8.4-6.9,11.6,4,1.3,7.8,2.7,10.5,3.8l-1.9,3.9c-3-1.2-7.4-3-12.1-4.6-4,3.2-8.6,5.8-13.5,7.7-.7-1-2-2.7-3-3.5,4-1.4,8-3.4,11.5-5.8-3.4-1.2-7-2.3-10.1-3.1l1.8-3.4c3.7.9,7.8,2.2,12,3.4,2.1-2,4-4.2,5.3-6.6l-19.9,2.5-.4-3.3-.3.2h0ZM1576.5,297.3l-8.3,1,.4,3.6,8.3-1-.4-3.6ZM1582.2,303.9l.3,2.3c.2,1.6.6,1.8,3,1.5l9.1-1.1c.7,0,1.2-.1,1.5-.3l-.5-4-13.3,1.6h0Z"/>
  <path d="M1551.6,390.2c-1.4-3.9-4.4-10.2-6.8-15l4.2-2.2c2.6,4.8,5.7,11,7,14.5l-4.4,2.7ZM1560.8,369.8l2.5,20.3c1.5,12.1,2,29.1-6.5,41.3-.9-1.1-3.3-2.9-4.5-3.5,5.2-7.6,6.5-16.8,6.3-25.4-2.9,2.5-5.9,4.8-8.8,6.9l-2.6-5c2.9-1.8,6.9-4.6,11.2-7.6-.2-2.1-.4-4-.7-6l-3.1-25.5,27.9-3.4c-.9-1.9-2-4.1-2.8-5.9l5.6-2c1.2,2.1,2.7,4.8,3.6,7l27-3.3.6,5.2-55.7,6.8h0ZM1615.8,378.3c-1.7,2.3-3.9,4.6-5.9,6.5,3.3,1.9,6.9,3.4,10.4,4.2-1,1.2-2.3,3.2-3,4.6-2.3-.8-4.8-1.7-7.1-3l1.9,15.8-15.2,1.9,1.5,12.1c.3,2.9,0,4.2-2.2,5.3-2.1,1.1-5.3,1.5-10.5,2.1-.5-1.5-1.5-3.4-2.5-4.6,3.9-.3,7.2-.8,8.2-1,1.1-.1,1.3-.4,1.2-1.3l-1.5-11.9-14.8,1.8-1.9-15.6c-1.9,1.7-4,3.2-6.3,4.8-1-1.2-2.8-2.8-4.1-3.4,3.5-2.2,6.6-4.7,9.2-7.2-2-1.5-4.7-3.1-6.8-4.2l2.8-3.1c2.1,1,4.9,2.5,6.9,4,1.8-2.1,3.3-4.4,4.4-6.6l-15,1.8-.6-4.7,17.9-2.2c.9-2.4,1.6-4.9,1.9-7.2h5.7c-.4,2.2-1,4.3-1.6,6.4l27.3-3.4.6,4.7-17,2.1c1.8,2.1,4.1,4,6.6,5.7,1.9-2.1,4.1-4.7,5.3-6.5l4,2.2h0ZM1583.7,413.3c-3,4.8-7.3,10.6-11,14.3-1.1-.8-3.5-2.2-5-2.9,3.8-3.5,7.8-8.3,10.6-12.5l5.4,1.1h0ZM1604.7,389.6l-25.2,3.1.6,4.8,25.2-3.1-.6-4.8ZM1605.8,398.2l-25.2,3.1.6,5,25.2-3.1-.6-5ZM1602.7,385.9c-3.1-2.4-6-5.2-8.3-8.2l-7.5.9c-1.5,3.4-3.5,6.8-6.2,10l21.9-2.7h0ZM1607.8,408.5c4.5,3.2,10.6,7.7,13.8,10.6l-4.1,3.5c-3-2.9-9-7.7-13.6-11.1l3.9-3h0Z"/>
  <path d="M1565.7,482.3c-1.6,2.5-3.1,4.7-4.7,6.7-.8-1.6-2.5-3.6-4-4.9,5.9-6.7,11.7-17.6,14.3-28.1l4.6,2.2c-.3,1.3-.7,2.8-1.2,4.2,5.9,4.6,12.4,10.4,15.6,14.3l-2.7,5.1c-3.1-4.1-9.2-9.7-14.7-14.4-2.1,5.2-4.5,10.2-7.1,14.6l18.3-2.2.6,5.2-18.6,2.3-.6-4.8h0ZM1591.5,493.7c-2,8.1-6,17.6-9.7,23.8,2.5,2,4.8,4.1,6.5,5.9l-3.4,4.3c-4-4.3-12-10.8-18.2-14.7l3.2-3.8c2.3,1.3,4.8,3.1,7.4,4.9,2.8-4.4,5.8-10.9,7.5-16.5l-22.2,2.7-.6-5.1,24.6-3,.9-.4,3.9,1.9h0ZM1604.6,469.1c.3-2.4.6-5.3.7-7.7l-16.3,2-.6-5.1,38.6-4.7.6,5.1-16,2c-.5,2.6-.9,5.4-1.4,7.8l16.1-2,5.1,41.2-33.7,4.1-5.1-41.2,11.9-1.5h0ZM1611.5,514.7c-3.3,4.5-9.2,9.6-14.4,12.6-1-1.1-3-2.6-4.4-3.5,5.3-2.9,10.9-7.7,13.3-11.5l5.4,2.4h0ZM1621.4,471.7l-22.7,2.8.9,7.7,22.7-2.8-.9-7.7ZM1622.9,483.8l-22.7,2.8,1,7.8,22.7-2.8-1-7.8ZM1624.4,495.9l-22.7,2.8,1,7.8,22.7-2.8-1-7.8ZM1622.2,510.7c4.6,2.2,10.9,5.8,14.1,8.3l-4.3,4c-3-2.5-9-6.3-13.9-8.8l4.1-3.5h0Z"/>
  <path d="M1600.7,591.4l3.4,28.1c.3,2.9,0,4.5-1.9,5.6-1.7,1.2-4.6,1.6-9.5,2.2-.3-1.4-1.4-3.6-2.3-4.9,3.4-.3,6.4-.7,7.2-.9.9-.1,1.3-.5,1.2-1.5l-3.3-27.3-13.1,3.5c1.3,10.3,2,24.3-2.7,34-1-.8-3.5-2.1-4.8-2.5,4.2-8.9,3.4-20.7,2.3-30.2l-5.1,1.4-1.3-5,5.8-1.4-3.1-25.6,7-.9c.6-3.2,1.1-7.3,1.3-10.2l6.1.4c-.8,3.1-1.5,6.5-2.2,9.2l11.6-1.4,2.8,22.6,4.4-1.1.8,4.6-4.6,1.2h0ZM1581.8,591.3c4.1-.9,8.5-2.1,13.2-3.2l-2.3-18.6-13.3,1.6,2.5,20.2h0ZM1585.5,574c2.3,3.3,4.9,7.6,6.2,10.4l-3.7,2.3c-1.3-3-3.9-7.5-6.1-10.8l3.6-1.9h0ZM1592,611.7c-1.5-3.1-4.6-8-7.2-11.5l3.5-2c2.7,3.6,5.8,8.2,7.4,11.3l-3.7,2.3h0ZM1639.1,566.6l-37,4.5-.6-5.2,15.8-1.9c-1.6-3.1-3.9-6.9-6.1-9.9l5.1-2.2c2.8,3.4,5.7,7.9,7.3,11.3l15-1.8.6,5.2h0ZM1640.9,615.7c.6,0,1.2-.3,1.5-.6.3-.4.5-1.1.4-2.3,0-1.5-.3-4.5-.7-8.6,1.2.8,2.9,1.4,4.4,1.7.4,3.7.7,8.1.6,9.8-.2,1.7-.8,2.8-1.6,3.6-.9.8-2.3,1.3-3.7,1.5l-3.6.4c-1.5.2-3.2,0-4.4-1-1.3-.9-1.8-2.2-2.5-7.7l-3.7-30.4-13.2,1.6,1.6,12.6c1.1,9,1.3,21-5.4,29.8-1.2-.9-3.6-2.4-5-2.8,6.2-8.2,5.9-18.3,4.9-26.3l-2.2-17.8,24.3-3,4.4,36c.2,2,.5,3.2.8,3.5s.8.3,1.3.2l1.8-.2h0Z"/>
  <path d="M1623.7,680.8c7.7,16.8,19.8,29.9,35.9,34.3-1.3,1.5-2.9,4.2-3.8,6.1-16.1-5.3-27.9-18.2-36.4-35.4-1.9,15.7-8.6,32-26.9,43.2-1.1-1.5-3.2-3.3-5-4.3,18.6-11,24.7-27.2,26.1-42.6l-29.3,3.6-.7-6,30.2-3.7c.2-8.5-.9-16.4-1.6-22.7l6.3-.8c.7,6.4,1.6,14.2,1.5,22.7l32.8-4,.7,6-29.9,3.7h0Z"/>
  <path d="M1606.7,784.9c.5,4,0,11.3-4.8,16.4-1.1-.7-3.5-1.6-4.8-2.1,4.5-4.5,4.8-10.5,4.3-13.8v-.7c0,0-5.8.7-5.8.7l-.6-4.8,17.4-2.1-.7-6-13.7,1.7-2-16.3,5.1-.6,1.4,11.5,8.6-1-1.6-13.3,5.5-.7,5.5,44.7-5.5.7-1.9-15.8-6.3.8v.9c.1,0,.1,0,.1,0ZM1640.3,806.6c10.4,2.4,24.4,6.1,31.9,8.7l-2.3,5c-7.4-2.7-22.2-7-33-9.7l2-3.9-3.7.5c-2.3,7-10,14.9-31.9,21.5-.8-1.3-2.5-3.2-3.9-4.3,18-5.3,25.7-11.1,28.9-16.3l-29.9,3.7-.6-5,32.2-4c0-1.1,0-2.1,0-3.1l-.6-4.8,5.8-.7.6,5c.1,1,.1,1.8.2,2.9l16.2-2c-1.9-1.5-4.7-3.1-7-4.4l2.1-2.4-2.8.3c-.4-1.4-1.3-3.1-2.2-4.4,3.7-.3,6.8-.7,7.7-.8,1-.2,1.2-.5,1.1-1.3l-1-7.9-18.5,2.3c3.4,1.5,7.2,4,9.3,6l-3.5,3.7c-1.9-2.1-6.1-4.8-9.5-6.5l3-3-9.4,1.2-.5-4.2,28.7-3.5-.7-5.8,5.6-.7.7,5.8,10-1.2.5,4.2-10,1.2,1,8c.3,2.8,0,4-2.1,5.1-1.3.6-3.3,1-6.1,1.5,2.7,1.4,6.1,3.3,7.8,4.7l-1.4,2,14.8-1.8.6,5-30.1,3.7h0ZM1660.3,753.6c-5.6,13-21.1,20.2-37.3,24.6-.6-1.1-1.8-2.6-2.9-3.4,7.8-1.8,15.2-4.5,21.7-8.1-2.4-2.1-5.6-4.6-8.6-6.4-3.1,1.8-6.3,3.5-10.1,5.2-.8-1-2.6-2.4-3.7-3,9.4-3.7,16.4-8.1,20.2-12.2l5.3.5c-1.1,1.3-2.3,2.5-3.7,3.7l14.8-1.8,1-.4,3.3,1.4h0ZM1635.8,767.9c-4.8,1.1-9.1,1.9-13.1,2.7l-1.1-3.4c3.9-.7,8.4-1.6,13.7-2.6l.5,3.2h0ZM1637.2,758.6c2.9,1.7,5.9,3.8,8.1,5.8,3.3-2.3,5.9-4.8,8-7.8l-16.1,2h0Z"/>
  <path d="M1041.5,892c-.5-1.5-1.4-3.9-2.2-5.7l1.5-.5c.8,1.8,1.8,4.1,2.3,5.6l-1.5.6h0ZM1046.2,894.6l1.7,14.2-1.9.2-1.7-14.2-4.1.5-.2-2,4.1-.5-1.1-9.2,1.9-.2,1.1,9.2,3.4-.4.2,1.9-3.4.4h0ZM1044.3,897c-.2,3.1-.9,7-2.2,9.2-.3-.6-.8-1.4-1.2-1.9.9-1.8,1.8-5,2-7.5l1.4.3h0ZM1049.3,885.4c-.5,2-1.1,4.5-1.6,6.1l-1.4-.3c.4-1.6,1-4.3,1.2-6.2l1.8.4ZM1047.9,896.1c.6.7,2.9,3.9,3.4,4.7l-1.2,1.7c-.6-1.3-2.5-4.4-3.2-5.5l1-.9h0ZM1065.3,890l.2,1.6-15.4,1.9-.2-1.6,6.6-.8-.2-1.9-5.6.7-.2-1.5,5.6-.7-.2-1.7-6.2.8-.2-1.6,6.2-.8-.3-2.2,2-.2.3,2.2,6.6-.8.2,1.6-6.6.8.2,1.7,6.1-.7.2,1.5-6.1.7.2,1.9,6.8-.8h0ZM1065.4,904.5c.1,1,0,1.5-.7,1.9-.7.4-1.8.5-3.6.8-.2-.5-.5-1.2-.8-1.7,1.3,0,2.4-.2,2.7-.3.4,0,.4-.2.4-.5l-.3-2.4-8.6,1.1c0,1.8-.4,3.6-1.4,5.1-.3-.3-1.2-1-1.6-1.2,1.4-2.3,1.2-5.1,1-7.3l-.6-5.1,12.2-1.5,1.4,11.1h0ZM1054,896.3l.2,2.1,8.3-1-.2-2.1-8.3,1ZM1063,900.9l-.2-2.1-8.3,1c0,.6.1,1.3.2,2.1l8.4-1h0Z"/>
  <path d="M1077.7,887.8c-1.1-.5-3.2-1.2-4.8-1.5l.8-1.5c1.6.2,3.7.8,4.7,1.3l-.8,1.8h0ZM1079.1,883.1c-1.1-.6-3.1-1.3-4.7-1.7l.8-1.5c1.6.3,3.7,1,4.7,1.6l-.9,1.7h0ZM1099.7,897l-11.5,1.4.7,5.5-2.1.2-.7-5.5-11.3,1.4-.2-1.9,11.3-1.4-.2-2,2.1-.2.2,2,11.5-1.4.2,1.9ZM1074.8,895c1.3-1.5,3.2-4,4.7-6.3l1.3,1.2c-1.3,2.1-2.9,4.5-4.4,6.5l-1.6-1.4h0ZM1081.7,885.6c-.5.7-.9,1.2-1.4,1.8-.4-.3-1.3-.9-1.8-1.1,2-2,3.8-4.8,4.8-7.7l2,.3c-.3.9-.7,1.9-1.1,2.8l4.4-.5c-.4-.7-.9-1.4-1.3-2l1.9-.8c.6.7,1.3,1.8,1.8,2.5l5.6-.7.2,1.6-6.1.8.3,2.1,5.2-.7.2,1.4-5.2.7.2,2,5.3-.7.2,1.4-5.3.7.3,2.1,6.6-.8.2,1.7-13.6,1.7.2,1.2-2,.2-1.2-10h0ZM1088.5,882.7l-5,.6.3,2.1,5-.6-.3-2.1ZM1088.9,886.2l-5,.6.2,2,5-.6-.2-2ZM1089.3,889.7l-5,.6.3,2.1,5-.6-.3-2.1Z"/>
  <path d="M1115.4,891c.3-1.1.7-2.7,1-4.2l-2.9.4,1.3,11c.1,1.1,0,1.7-.8,2.1-.7.4-2,.6-3.9.8-.2-.5-.5-1.4-.9-1.9,1.4-.2,2.7-.3,3.1-.4.4,0,.5-.2.5-.5l-1.3-11-4.6.6-.2-1.8,7.1-.9c-1.6-1.2-4.1-2.5-6.2-3.3l.9-1.5c.9.4,2,.8,3,1.3.8-1,1.7-2.3,2.3-3.6l-7.4.9-.2-1.8,8.8-1.1.4-.2,1.4.7c-.9,2-2.3,4.2-3.7,5.9.9.5,1.8,1,2.4,1.5l-.6.9,2-.2h.3c0-.1,1.3,0,1.3,0-.5,2.2-1,4.8-1.6,6.3l-1.6-.2h0ZM1122.7,879.7c0-.9.2-1.8.2-2.7l-5.8.7-.2-1.8,14-1.7.2,1.8-5.9.7c-.1,1-.3,1.9-.4,2.7l5.8-.7,1.8,14.4-12,1.5-1.8-14.4,4.2-.5h0ZM1125,895.6c-1.3,1.6-3.7,3.5-5.8,4.5-.3-.3-1.1-.9-1.5-1.2,2.1-1,4.4-2.8,5.4-4.1l1.9.8h0ZM1128.7,880.6l-8.1,1,.3,2.7,8.1-1-.3-2.7ZM1129.2,884.7l-8.1,1,.3,2.7,8.1-1-.3-2.7ZM1129.7,889l-8.1,1,.3,2.7,8.1-1-.3-2.7ZM1128.9,894.2c1.8.8,4.1,2,5.3,2.9l-1.5,1.4c-1.2-.9-3.5-2.2-5.3-3l1.4-1.2h0Z"/>
  <path d="M1148.8,872.6c-.6,2.4-1.3,5.5-2,7.9,2.4,2.1,3.2,4.1,3.4,5.8.2,1.5,0,2.8-.7,3.4-.4.4-.9.6-1.4.7-.6.1-1.4.2-2,.3,0-.5-.4-1.3-.8-1.8.7,0,1.3,0,1.8-.2.4,0,.7-.2.9-.4.4-.4.4-1.2.3-2-.2-1.6-.9-3.4-3.3-5.4.6-2.2,1.2-4.9,1.6-6.9l-4.1.5,2.7,22.3-1.9.2-3-24.2,6.8-.8h.3c0-.1,1.5.5,1.5.5h0ZM1155.2,876.6c.2,1.5.2,2.8.3,4.2l8.1-1v.9c.8,8.6.9,11.7.2,12.8-.4.7-.9,1-1.8,1.2-.8.2-2.3.3-3.8.5-.1-.6-.4-1.4-.9-2,1.5,0,3-.2,3.5-.3.5,0,.7-.2,1-.5.5-.7.5-3.4-.1-10.5l-6.2.8c0,5.5-1.1,10.2-5.6,13.5-.3-.4-1.1-1-1.6-1.4,5.7-4.1,5.5-10.6,4.8-18l-4.4.5-.2-2,16-2,.2,2-9.6,1.2h0ZM1156.2,869.8c.6,1.2,1.5,2.9,1.8,3.8l-1.9.8c-.4-1-1.1-2.7-1.8-4l1.8-.7h0Z"/>
  <path d="M1186.7,874.2c-.5-1.5-1.4-3.9-2.2-5.7l1.5-.5c.8,1.8,1.8,4.1,2.3,5.6l-1.5.6h0ZM1191.4,876.8l1.7,14.2-1.9.2-1.7-14.2-4.1.5-.2-2,4.1-.5-1.1-9.2,1.9-.2,1.1,9.2,3.4-.4.2,1.9-3.4.4h0ZM1189.5,879.1c-.2,3.1-.9,7-2.2,9.2-.3-.6-.8-1.4-1.2-1.9.9-1.8,1.8-5,2-7.5l1.4.3h0ZM1194.4,867.5c-.5,2-1.1,4.5-1.6,6.1l-1.4-.3c.4-1.6,1-4.3,1.2-6.2l1.8.4ZM1193.1,878.3c.6.7,2.9,3.9,3.4,4.7l-1.2,1.7c-.6-1.3-2.5-4.4-3.2-5.5l1-.9h0ZM1210.5,872.2l.2,1.6-15.4,1.9-.2-1.6,6.6-.8-.2-1.9-5.6.7-.2-1.5,5.6-.7-.2-1.7-6.2.8-.2-1.6,6.2-.8-.3-2.2,2-.2.3,2.2,6.6-.8.2,1.6-6.6.8.2,1.7,6.1-.7.2,1.5-6.1.7.2,1.9,6.8-.8h0ZM1210.6,886.6c.1,1,0,1.5-.7,1.9-.7.4-1.8.5-3.6.8-.2-.5-.5-1.2-.8-1.7,1.3,0,2.4-.2,2.7-.3.4,0,.4-.2.4-.5l-.3-2.4-8.6,1.1c0,1.8-.4,3.6-1.4,5.1-.3-.3-1.2-1-1.6-1.2,1.4-2.3,1.2-5.1,1-7.3l-.6-5.1,12.2-1.5,1.4,11.1h0ZM1199.2,878.5l.2,2.1,8.3-1-.2-2.1-8.3,1ZM1208.2,883l-.2-2.1-8.3,1c0,.6.1,1.3.2,2.1l8.4-1h0Z"/>
  <path d="M1222.8,870c-1.1-.5-3.2-1.2-4.8-1.5l.8-1.5c1.6.2,3.7.8,4.7,1.3l-.8,1.8h0ZM1224.3,865.3c-1.1-.6-3.1-1.3-4.7-1.7l.8-1.5c1.6.3,3.7,1,4.7,1.6l-.9,1.7h0ZM1244.9,879.1l-11.5,1.4.7,5.5-2.1.2-.7-5.5-11.3,1.4-.2-1.9,11.3-1.4-.2-2,2.1-.2.2,2,11.5-1.4.2,1.9ZM1219.9,877.2c1.3-1.5,3.2-4,4.7-6.3l1.3,1.2c-1.3,2.1-2.9,4.5-4.4,6.5l-1.6-1.4h0ZM1226.9,867.7c-.5.7-.9,1.2-1.4,1.8-.4-.3-1.3-.9-1.8-1.1,2-2,3.8-4.8,4.8-7.7l2,.3c-.3.9-.7,1.9-1.1,2.8l4.4-.5c-.4-.7-.9-1.4-1.3-2l1.9-.8c.6.7,1.3,1.8,1.8,2.5l5.6-.7.2,1.6-6.1.8.3,2.1,5.2-.7.2,1.4-5.2.7.2,2,5.3-.7.2,1.4-5.3.7.3,2.1,6.6-.8.2,1.7-13.6,1.7.2,1.2-2,.2-1.2-10h0ZM1233.7,864.9l-5,.6.3,2.1,5-.6-.3-2.1ZM1234.1,868.4l-5,.6.2,2,5-.6-.2-2ZM1234.5,871.8l-5,.6.3,2.1,5-.6-.3-2.1Z"/>
  <path d="M1257.3,869.9c-1.2-.6-3.7-1.7-5.4-2.3l.9-1.6c1.8.5,4.2,1.5,5.5,2.2l-.9,1.8h0ZM1258.2,862.2c-1.3-.7-3.7-1.8-5.6-2.5l1-1.6c1.8.6,4.3,1.6,5.6,2.2l-1,1.9ZM1254.3,881.7c1.2-2.3,2.9-6.2,4.2-9.5l1.7,1.2c-1.1,3.1-2.6,6.8-3.9,9.5l-1.9-1.2h0ZM1270.3,859.4c2.6,2.1,5.4,5.2,6.8,7.2l-1.7,1.3c-.3-.5-.7-1-1.2-1.6-11.9,2.3-13.2,2.5-14,3-.2-.4-.6-1.4-.9-1.9.5-.2,1.1-.9,1.7-2,.7-1.1,2.8-5.1,3.9-8.9l2.2.3c-1.3,3.5-2.9,6.9-4.6,9.7l10.3-1.8c-1.2-1.4-2.7-2.9-4.1-4.1l1.6-1.1h0ZM1261.5,871.3l14-1.7,1.3,11-2.1.2v-1.1c-.1,0-10.1,1.2-10.1,1.2l.2,1.2-2,.2-1.4-11.1h0ZM1263.8,873l.7,6.1,9.9-1.2-.7-6.1-9.9,1.2Z"/>
  <path d="M1287.2,864.8c-.5-1.3-1.5-3.6-2.4-5.3l1.5-.8c.9,1.7,2,3.8,2.5,5.1l-1.6,1h0ZM1290.4,857.7l.9,7.1c.5,4.2.7,10.2-2.3,14.4-.3-.4-1.2-1-1.6-1.2,1.8-2.7,2.3-5.9,2.2-8.9-1,.9-2.1,1.7-3.1,2.4l-.9-1.8c1-.6,2.4-1.6,3.9-2.7,0-.7-.1-1.4-.2-2.1l-1.1-8.9,9.8-1.2c-.3-.7-.7-1.4-1-2l1.9-.7c.4.7.9,1.7,1.3,2.5l9.4-1.2.2,1.8-19.5,2.4h0ZM1309.7,860.7c-.6.8-1.4,1.6-2.1,2.3,1.2.7,2.4,1.2,3.7,1.5-.3.4-.8,1.1-1,1.6-.8-.3-1.7-.6-2.5-1l.7,5.5-5.3.7.5,4.2c.1,1,0,1.5-.8,1.9-.7.4-1.9.5-3.7.7-.2-.5-.5-1.2-.9-1.6,1.4-.1,2.5-.3,2.9-.3.4,0,.5-.1.4-.5l-.5-4.2-5.2.6-.7-5.5c-.7.6-1.4,1.1-2.2,1.7-.3-.4-1-1-1.4-1.2,1.2-.8,2.3-1.6,3.2-2.5-.7-.5-1.6-1.1-2.4-1.5l1-1.1c.8.4,1.7.9,2.4,1.4.6-.8,1.2-1.5,1.6-2.3l-5.2.6-.2-1.6,6.3-.8c.3-.8.6-1.7.7-2.5h2c-.1.8-.3,1.5-.6,2.2l9.6-1.2.2,1.6-5.9.7c.6.7,1.4,1.4,2.3,2,.7-.7,1.4-1.6,1.9-2.3l1.4.8h0ZM1298.5,872.9c-1.1,1.7-2.6,3.7-3.8,5-.4-.3-1.2-.8-1.7-1,1.3-1.2,2.8-2.9,3.7-4.4l1.9.4ZM1305.8,864.6l-8.8,1.1.2,1.7,8.8-1.1-.2-1.7ZM1306.2,867.6l-8.8,1.1.2,1.8,8.8-1.1-.2-1.8ZM1305.1,863.3c-1.1-.8-2.1-1.8-2.9-2.9l-2.6.3c-.5,1.2-1.2,2.4-2.2,3.5l7.7-.9ZM1306.9,871.2c1.6,1.1,3.7,2.7,4.8,3.7l-1.4,1.2c-1.1-1-3.2-2.7-4.8-3.9l1.4-1h0Z"/>
  <path d="M1336.5,858.7c-1.2,1.6-2.8,3.2-4.3,4.1-.3-.3-.9-.9-1.4-1.2,1.8-.9,3.7-2.6,4.9-4.3l-4,.5-.6-4.8,4.7-.6-.2-1.4-5.5.7-.2-1.6,5.5-.7-.2-1.8,1.8-.2.2,1.8,5.2-.6.2,1.6-5.2.6.2,1.4,4.5-.6.6,4.8-4.5.6v1c.1,0,.8-1,.8-1,1.4.5,3.1,1.2,4.1,1.9l-.8,1.3c-.9-.6-2.6-1.4-3.9-2l.4,3.6-1.8.2-.4-3.3h0ZM1345.7,869.7l11.6-1.4.2,1.8-25,3.1-.2-1.8,4.6-.6-.6-4.6,2-.2.6,4.6,4.9-.6-.7-6.1-9.6,1.2-.2-1.7,21.4-2.6.2,1.7-9.8,1.2.3,2.2,7.9-1,.2,1.6-7.9,1,.3,2.3h0ZM1333.1,856.3l3-.4-.2-2-3,.4.2,2ZM1337.7,853.7l.2,2,2.8-.3-.2-2-2.8.3ZM1353.2,850.5c-.4,2.3-1.2,4.2-2.2,5.8,1.5,1,3.3,1.8,5.3,2.2-.3.4-.8,1.2-1,1.7-2.1-.5-3.9-1.4-5.4-2.5-1.3,1.5-3.1,2.7-5,3.7-.3-.3-1-1-1.4-1.3,2.1-1,3.8-2.1,5-3.5-1.2-1.1-2.1-2.2-2.8-3.4-.4.8-.9,1.5-1.4,2.1-.3-.3-1.1-.9-1.6-1.2,1.6-1.9,2.7-4.7,3.1-7.5l1.9.2c-.2,1-.4,1.9-.7,2.8l7.7-1,.2,1.7-1.8.2h0ZM1349.5,855.2c.8-1.3,1.4-2.8,1.7-4.5l-4.8.6c.7,1.3,1.8,2.7,3.1,3.9h0Z"/>
  <path d="M1377.6,843.4c-.2.5-.5.9-.7,1.4,3.7,3,7.8,4.8,12.5,6.2-.5.5-1,1.4-1.2,2-1.7-.6-3.3-1.2-4.8-1.9l.2,1.9-13.9,1.7-.2-1.4c-1.3,1-2.6,2-4,2.8-.4-.5-1.1-1.2-1.7-1.6,5-2.7,9.6-7,11.9-11.7l1.9.7h0ZM1368.6,858.2l17.1-2.1,1.3,11-2.1.3-.2-1.5-12.9,1.6.2,1.6-2.1.3-1.4-11.1h0ZM1383.2,851c-2.6-1.2-5.1-2.7-7.4-4.7-1.6,2.3-3.5,4.4-5.7,6.3l13.1-1.6ZM1370.9,859.7l.7,5.8,12.9-1.6-.7-5.8-12.9,1.6Z"/>
  <path d="M1397.8,842.3h-.9c0,.1-.2-1.2-.2-1.2l12.2-1.5.2,1.3-9.7,1.2.9,7.5c.1,1,.4,1.3,1.4,1.2l5.9-.7c.7,0,1.9-.3,2.5-.4.1.4.2,1,.4,1.3-.5.2-1.5.3-2.5.5l-6.1.7c-2.2.3-2.9-.4-3.2-2.4l-.9-7.5h0ZM1413.7,853.1l.2,1.2,6.6-.8,1.1,9.3-1.9.2v-1.1c-.1,0-16.1,2-16.1,2v1.1c.1,0-1.8.2-1.8.2l-1.1-9.3,6.9-.8-.2-1.2-9.8,1.2-.2-1.5,25.2-3.1.2,1.5-9.2,1.1h0ZM1405.6,846.6h0c1.4.6,2.9,1.4,3.8,2l-.8,1.1c-.8-.5-2.1-1.3-3.3-1.9-.4.9-1.3,1.9-3,2.8-.2-.3-.7-.7-1.1-.9,2-.9,2.7-1.9,3-2.9l-3.5.4-.2-1.2,3.7-.5v-.2s-.2-1.3-.2-1.3l-1.7.2c-.3.5-.6,1-.9,1.4-.3-.2-.9-.4-1.2-.5.8-1,1.4-2.1,1.7-3.3l1.3.2c0,.3-.2.6-.3,1l5.5-.7v1.2c.1,0-3,.4-3,.4l.2,1.3v.2s3.7-.5,3.7-.5l.2,1.2-3.8.5h0ZM1419.4,860.8l-.4-3.1h-.3s-3.6.5-3.6.5c-2,.2-2.5,0-2.7-1.5v-.8c0,0-3.1.4-3.1.4-.1,1.4-1.3,2.6-5.2,3.8-.2-.3-.7-.9-1.1-1.1,3.2-.8,4.3-1.6,4.5-2.5l-4.9.6.7,5.7,15.9-2h0ZM1405.6,860.2l11.6-1.4.2,1.2-11.6,1.4-.2-1.2ZM1410.4,844.8c-.3-.4-.9-1-1.3-1.1,2-1.1,2.3-2.1,2.1-3.1l-.2-1.4,6.6-.8.3,2.6c0,.5.1.7.5.6l1.2-.2c.3,0,.8-.1,1.1-.2,0,.4.2,1,.3,1.4-.3.1-.8.2-1.2.3l-1.5.2c-1.5.2-1.9-.4-2.1-1.9v-1.1c-.1,0-3.4.4-3.4.4.2,1.3-.2,2.8-2.1,4l7.6-.9h.3c0-.1,1.1.2,1.1.2-.5,1.6-1.3,2.9-2.4,4.1,1.4.5,2.7.9,3.7,1.3l-.7,1.3c-1-.4-2.6-1-4.2-1.6-1.4,1.1-3,2-4.7,2.7-.2-.4-.7-.9-1.1-1.2,1.4-.5,2.8-1.2,4-2-1.2-.4-2.4-.8-3.5-1.1l.6-1.2c1.3.3,2.8.8,4.2,1.2.7-.7,1.4-1.5,1.9-2.3l-7,.9v-1.2c-.1,0-.2,0-.2,0h0ZM1412.1,853.3l-2.9.4.2,1.2,2.9-.4-.2-1.2ZM1414,855.6v.8c.2.6.3.6,1.2.5l3.2-.4c.2,0,.4,0,.5,0l-.2-1.4-4.7.6Z"/>
  <path d="M1432.4,847c-.5-1.3-1.5-3.6-2.4-5.3l1.5-.8c.9,1.7,2,3.8,2.5,5.1l-1.6,1h0ZM1435.6,839.9l.9,7.1c.5,4.2.7,10.2-2.3,14.4-.3-.4-1.2-1-1.6-1.2,1.8-2.7,2.3-5.9,2.2-8.9-1,.9-2.1,1.7-3.1,2.4l-.9-1.8c1-.6,2.4-1.6,3.9-2.7,0-.7-.1-1.4-.2-2.1l-1.1-8.9,9.8-1.2c-.3-.7-.7-1.4-1-2l1.9-.7c.4.7.9,1.7,1.3,2.5l9.4-1.2.2,1.8-19.5,2.4h0ZM1454.9,842.8c-.6.8-1.4,1.6-2.1,2.3,1.2.7,2.4,1.2,3.7,1.5-.3.4-.8,1.1-1,1.6-.8-.3-1.7-.6-2.5-1l.7,5.5-5.3.7.5,4.2c.1,1,0,1.5-.8,1.9-.7.4-1.9.5-3.7.7-.2-.5-.5-1.2-.9-1.6,1.4-.1,2.5-.3,2.9-.3.4,0,.5-.1.4-.5l-.5-4.2-5.2.6-.7-5.5c-.7.6-1.4,1.1-2.2,1.7-.3-.4-1-1-1.4-1.2,1.2-.8,2.3-1.6,3.2-2.5-.7-.5-1.6-1.1-2.4-1.5l1-1.1c.8.4,1.7.9,2.4,1.4.6-.8,1.2-1.5,1.6-2.3l-5.2.6-.2-1.6,6.3-.8c.3-.8.6-1.7.7-2.5h2c-.1.8-.3,1.5-.6,2.2l9.6-1.2.2,1.6-5.9.7c.6.7,1.4,1.4,2.3,2,.7-.7,1.4-1.6,1.9-2.3l1.4.8h0ZM1443.7,855.1c-1.1,1.7-2.6,3.7-3.8,5-.4-.3-1.2-.8-1.7-1,1.3-1.2,2.8-2.9,3.7-4.4l1.9.4ZM1451,846.8l-8.8,1.1.2,1.7,8.8-1.1-.2-1.7ZM1451.4,849.8l-8.8,1.1.2,1.8,8.8-1.1-.2-1.8ZM1450.3,845.5c-1.1-.8-2.1-1.8-2.9-2.9l-2.6.3c-.5,1.2-1.2,2.4-2.2,3.5l7.7-.9h0ZM1452.1,853.4c1.6,1.1,3.7,2.7,4.8,3.7l-1.4,1.2c-1.1-1-3.2-2.7-4.8-3.9l1.4-1h0Z"/>
  <path class="st0" d="M919.5,915.2l14.1-3.8c.8-.2,1.6.3,1.8,1,.2.8-.2,1.6-1,1.8,0,0-.2,0-.3,0l-14.5.9h0Z"/>
  <path class="st0" d="M942.1,911.5c-3.7,2.1-8.1,5.3-10.6,8.4l1.3-6.9-3.4-6.1c3.4,2.1,8.6,3.8,12.8,4.6h0Z"/>
  <path class="st0" d="M959.3,909.3l14.1-3.8c.8-.2,1.6.3,1.8,1,.2.8-.2,1.6-1,1.8,0,0-.2,0-.3,0l-14.5.9h0Z"/>
  <path class="st0" d="M981.8,905.7c-3.7,2.1-8.1,5.3-10.6,8.4l1.3-6.9-3.4-6.1c3.4,2.1,8.6,3.8,12.8,4.6h0Z"/>
  <path class="st0" d="M997.3,904.2l14.1-3.8c.8-.2,1.6.3,1.8,1,.2.8-.2,1.6-1,1.8,0,0-.2,0-.3,0l-14.5.9h0Z"/>
  <path class="st0" d="M1019.8,900.5c-3.7,2.1-8.1,5.3-10.6,8.4l1.3-6.9-3.4-6.1c3.4,2.1,8.6,3.8,12.8,4.6h0Z"/>
  <path d="M85.4,680.8l2.2,17.7-11.6,1.4-.3-2.2,1.4-.2-1.7-13.4-1.5.2-.3-2.1,11.6-1.4ZM83.7,683.2l-6.1.8,1.7,13.4,6.1-.8-1.7-13.4ZM97.6,692.8c-2,3-5,6.6-7.2,8.3l-1.5-1.6c.7-.5,1.4-1.2,2.2-2-2.8-15.8-3.1-17.4-3.6-18.4.4-.1,1.4-.6,1.9-.9.2.6.9,1.2,1.9,2,1,.9,4.9,3.7,8.6,5.4l-.7,2.1c-3.3-1.8-6.4-4-9-6.1l2.4,14.1c1.3-1.5,2.6-3,3.6-4.5l1.3,1.5h0Z"/>
  <path d="M85,717.3l-1.7.6c-2.2-3.8-4.6-7.8-6.2-10.9l1.9-1.2c.9,1.9,2.3,4.7,3.9,7.5l11.1-1.4-.9-7,2-.2.9,7,6.5-.8.3,2.1-18.8,2.3,1.1,2ZM82.4,727c.2,1.2,1.5,1.2,6.8.8-.4.6-.7,1.5-.8,2.1-5.7.5-7.8.2-8.1-2.5l-.5-3.7c-.3-2.4.4-3.2,3.3-3.5l20-2.5.3,2.1-6.4.8.9,7.8-2,.2-.9-7.8-11.6,1.4c-1.4.2-1.6.4-1.5,1.5,0,0,.4,3.3.4,3.3Z"/>
  <path d="M92.5,733.9l1.2,10.1-12,1.5-.2-2h.8c0,0-.8-6.2-.8-6.2h-1c0,.1-.2-1.8-.2-1.8l12.3-1.5h0ZM95.3,756.6l-12,1.5-.2-2.1h.8c0,0-.8-6.2-.8-6.2h-1c0,.1-.2-1.9-.2-1.9l12.3-1.5,1.2,10.2h0ZM84.1,743.1l3.1-.4-.8-6.1-3.1.4.8,6.1ZM85.6,755.7l3.1-.4-.8-6.1-3.1.4.8,6.1ZM90.9,736.1l-2.8.3.8,6.1,2.8-.3-.8-6.1ZM92.5,748.7l-2.8.3.8,6.1,2.8-.3-.8-6.1ZM96.7,752.5l-1.8-15.1,10.3-1.3,1.8,15.1-10.3,1.3ZM100.8,749.9l-1.3-11-2.6.3,1.3,11,2.6-.3ZM105,749.4l-1.3-11-2.5.3,1.3,11,2.5-.3Z"/>
  <path d="M93,774.5l-2.3.3,1.2,10-1.8.2-1.2-10-3.7.5-.2-2,3.7-.5-1.2-9.9,1.8-.2,1.2,9.9,2.3-.3-1.4-11.3,1.8-.2,1.4,11.3,7.3-.9-1.3-10.6,1.8-.2,2.9,23.5-1.8.2-1.3-10.8-7.3.9,1.4,11.5-1.8.2-1.4-11.5h0ZM100.6,766.7l-2,.2.4,3.4-1.8.2-.4-3.4-2.1.3-.2-1.9,2.1-.3-.5-4,1.8-.2.5,4,2-.2.2,1.9ZM96.1,779.1l2.2-.3-.4-3.5,1.8-.2.4,3.5,1.9-.2.2,1.9-1.9.2.5,3.9-1.8.2-.5-3.9-2.2.3-.2-1.9ZM105.9,766l-.8-6.3,1.8-.2.8,6.3,2-.2.2,2-2,.2.4,3.3-1.8.2-.4-3.3-2.1.3-.2-2,2.1-.3ZM107.1,775.5l-.4-3.2,1.8-.2.4,3.2,2-.2.2,2-2,.2.8,6.4-1.8.2-.8-6.4-2.1.3-.2-2,2.1-.3Z"/>
  <path d="M88.6,789.7c2.3,1.1,6.2,2.5,9.5,3.5l-1,1.8c-3.1-.9-6.8-2.2-9.5-3.2l1-2h0ZM111.3,805.9l-3.8.5.6,5.2-18.1,2.2-.2-2.1,1.2-.2-1.5-12.3-1.3.2-.2-2,18.2-2.2.6,4.8,3.8-.5-.7-5.8,2-.2,2.2,18.3-2,.2-.8-6.2h0ZM92.8,811.4l7.6-.9v-.2s-.3-2.7-.3-2.7c-.2-1.8.2-2.3,1.9-2.5l3.4-.4-.3-2.5h-1c-1.9.4-4.4,0-6.3-2.8.2-.2.7-.8.9-1.2l-7.4.9,1.5,12.3h0ZM96.5,800.2l1.1,9.2-1.8.2-1.1-9.2,1.8-.2ZM104.6,797.5l-5.6.7c1.7,2.3,3.5,2.6,5,2.4h.9c0-.1-.4-3.1-.4-3.1h0ZM100.7,792.5c.6-1.2,1.6-3.3,2.2-5l1.7,1c-.6,1.6-1.4,3.8-2,5l-1.8-1h0ZM106.1,809.7l-.4-3.4-3.4.4c-.5,0-.6.2-.5.8l.3,2.2c0,.2,0,.4,0,.4l3.9-.5h0ZM111.1,804l-.3-2.6-3.8.5.3,2.6,3.8-.5ZM112.1,788.6c-.6,1.5-1.5,3.7-2.1,4.8l-1.8-1c.7-1.1,1.7-3.2,2.3-4.8l1.6,1h0Z"/>
  <path d="M115.4,839.6l-2,.2-2.5-20.5-5.2.6c-4.3.5-10.7.9-15.2-1.1.3-.4.8-1.4.9-2,4.3,1.9,10,1.4,14,.9l7.2-.9,1.3,10.8c.9-.5,1.9-1.1,2.6-1.8l.7,1.9c-.9.8-2.1,1.7-3.1,2.2l1.2,9.4h0ZM108,830.5l1.1,9-1.9.2-1.1-9-3.7.5.9,7.6-9.8,1.2-.2-2.1h1.1c0-.1-1.4-11.9-1.4-11.9h-1.1c0,.1-.2-1.9-.2-1.9l9.8-1.2.7,6.1,8.9-1.1.3,2.1-3.3.4h0ZM101.2,837l-1.4-11.7-5,.6,1.4,11.7,5-.6Z"/>
  <path d="M106.5,185.5c0,.1,0,.2-.2.2-.4,0-1.2.1-2.2.2s-1.7.1-2.2.2c-.6,0-1.3.2-2.1.3-.8.1-1.4.2-1.9.3,0,0-.2,0-.2-.2,0-.1,0-.2.1-.2.7,0,1.2-.2,1.5-.4.3-.2.4-.5.4-.8s-.3-.9-.8-1.8l-3.4-5.2-8.7,1.1-1.2,4.1c-.2.8-.3,1.4-.2,2,0,.8.5,1.4,1.1,1.8.7.4,1.5.5,2.6.3.1,0,.2,0,.2.2,0,.1,0,.2-.2.2-.4,0-1.1.1-1.9.2-.9,0-1.7.1-2.4.2-.6,0-1.4.2-2.2.4-.8.1-1.4.2-1.9.3-.1,0-.2,0-.2-.2s0-.2.2-.2c.7,0,1.2-.3,1.6-.6s.8-.8,1.2-1.6c.3-.7.7-1.8,1.2-3.2l5.6-18.2c0,0,.1-.1.3-.1.2,0,.3,0,.3,0l10.9,16.6c1,1.6,1.9,2.7,2.5,3.3s1.3.8,1.9.7c.1,0,.2,0,.2.2h0ZM87.2,178.2l7.8-1-5.1-7.8-2.7,8.8h0Z"/>
  <path d="M115.9,183.2c.2.3.4.5.8.6.4,0,1,0,1.8,0,0,0,.1,0,.1.2,0,.1,0,.2,0,.2-.8,0-1.4.2-1.8.2l-2.7.3-2.6.4c-.4,0-1.1.2-1.8.3,0,0-.1,0-.1-.2,0-.1,0-.2,0-.2.8-.1,1.4-.2,1.8-.4.3-.2.6-.4.7-.8s.1-.9,0-1.6l-2-16.5c0-.7-.2-1.2-.4-1.6-.2-.3-.5-.5-.8-.6-.4,0-1,0-1.8,0,0,0-.1,0-.1-.2,0-.1,0-.2,0-.2l1.9-.2c1.1,0,1.9-.2,2.6-.2.7,0,1.6-.2,2.7-.4l1.8-.3c0,0,.1,0,.1.2,0,.1,0,.2,0,.2-.8.1-1.4.2-1.7.4-.3.2-.6.5-.7.8,0,.4,0,.9,0,1.6l2,16.5c0,.7.2,1.3.4,1.6h0Z"/>
  <path d="M140,180.3c.2.3.4.5.8.6.4,0,1,0,1.8,0,0,0,.1,0,.1.2,0,.1,0,.2,0,.2-.8,0-1.4.2-1.8.2l-2.6.3-2.6.4c-.4,0-1.1.2-1.9.3,0,0-.1,0-.1-.2,0-.1,0-.2,0-.2.8-.1,1.4-.2,1.8-.4.4-.2.6-.4.7-.8.1-.4.1-.9,0-1.6l-2-16.5c0-.7-.2-1.2-.4-1.6-.2-.3-.5-.5-.9-.6-.4,0-1,0-1.8,0,0,0-.1,0-.1-.2,0-.1,0-.2,0-.2l1.9-.2c1.1,0,1.9-.2,2.6-.2.7,0,1.6-.2,2.7-.4l1.8-.2c0,0,.1,0,.1.2,0,.1,0,.2,0,.2-.8.1-1.4.2-1.7.4-.4.2-.6.5-.7.8s0,.9,0,1.6l2,16.5c0,.7.2,1.3.4,1.6h0Z"/>
  <path d="M169.1,155.6c0,.1,0,.2,0,.2-.9.1-1.6.6-2.1,1.3-.4.7-.6,1.8-.4,3l2.3,18.5c0,0,0,.1-.2.2-.1,0-.2,0-.2,0l-19.1-17.4,1.8,14.5c.1,1.3.5,2.2,1.1,2.8.6.6,1.4.9,2.3.7,0,0,0,0,.1.2,0,.1,0,.2,0,.2-.6,0-1.1.1-1.5.1l-1.9.2-2.1.3c-.4,0-.9.1-1.6.2,0,0-.1,0-.1-.2,0-.1,0-.2,0-.2,1-.1,1.8-.6,2.2-1.3s.6-1.7.5-3l-1.9-15.6c-.8-.6-1.4-1.1-2-1.3s-1.1-.3-1.7-.2c0,0,0,0-.1-.2,0-.1,0-.2,0-.2h1.4c.3-.1.8-.2,1.3-.3l2.3-.3c.3,0,.6-.1,1-.2.2,0,.3,0,.4,0,.1,0,.3.3.5.5l1,1,14.7,13.6-1.6-12.6c-.1-1.3-.5-2.2-1.1-2.8-.6-.6-1.3-.9-2.3-.8,0,0,0,0-.1-.2,0-.1,0-.2,0-.2h1.5c.8-.2,1.4-.2,1.9-.3.5,0,1.1-.2,1.9-.3l1.6-.2s0,0,.1.2h0Z"/>
  <path d="M210.3,172.7c0,.1,0,.2,0,.2-.8.1-1.5.2-2,.2l-2.6.3-3,.4c-.4,0-1,.2-1.7.2,0,0-.1,0-.1-.2,0-.1,0-.2,0-.2.9-.1,1.6-.2,1.9-.4s.6-.4.7-.8.1-.9,0-1.6l-1-8.2-12.3,1.5,1,8.2c0,.7.2,1.2.4,1.6.2.3.5.5.9.6.4,0,1.1,0,2,0,0,0,0,0,.1.2,0,.1,0,.2,0,.2-.8.1-1.4.2-1.9.2l-3,.3-2.6.4c-.4,0-1.1.2-1.9.3,0,0,0,0-.1-.2,0-.1,0-.2,0-.2.9-.1,1.5-.2,1.9-.4s.6-.4.7-.8c.1-.4.1-.9,0-1.6l-2-16.5c0-.7-.2-1.2-.4-1.6-.2-.3-.5-.5-.9-.6s-1.1,0-1.9,0c0,0,0,0-.1-.2,0-.1,0-.2,0-.2l1.9-.2c1.1,0,2-.2,2.6-.2.8-.1,1.8-.2,3-.4l1.9-.3s0,0,.1.2c0,.1,0,.2,0,.2-.9.1-1.5.3-1.9.4s-.7.5-.8.8-.1.9,0,1.6l.9,7.3,12.3-1.5-.9-7.3c0-.7-.2-1.2-.4-1.6-.2-.3-.5-.5-.9-.6-.4,0-1.1,0-2,0,0,0-.1,0-.1-.2,0-.1,0-.2,0-.2l1.7-.2c1.1,0,2.2-.2,3.1-.3.6,0,1.5-.2,2.6-.4l2-.3c0,0,.1,0,.1.2,0,.1,0,.2,0,.2-.9.1-1.5.2-1.9.4s-.6.4-.7.8c-.1.4-.1.9,0,1.6l2,16.5c0,.7.2,1.2.4,1.6s.5.5.9.6,1,0,1.9,0c0,0,.1,0,.1.2h0Z"/>
  <path d="M230.1,164.8c0,0,.1,0,.2,0s.1,0,.1,0c0,1.8,0,3.5.2,5,0,.2,0,.3,0,.4s-.2.1-.4.2l-15.5,1.9c0,0-.1,0-.1-.2,0-.1,0-.2,0-.2.8-.1,1.4-.2,1.8-.4.4-.2.6-.4.7-.8s0-.9,0-1.6l-2-16.5c0-.7-.2-1.2-.4-1.6s-.5-.5-.9-.6c-.4,0-1,0-1.8,0,0,0-.1,0-.1-.2,0-.1,0-.2,0-.2l14.9-1.8c.2,0,.4,0,.4.3l.6,4.6s0,0-.2.1c-.1,0-.2,0-.2,0-.9-2.6-2.7-3.8-5.5-3.5l-1.4.2c-.9.1-1.4.3-1.8.7-.3.4-.4.9-.3,1.6l.9,7.3,3.4-.4c2.6-.3,3.8-1.4,3.6-3.1,0,0,0-.1.2-.1.1,0,.2,0,.2,0l.4,3.1.2,1.7c.1.8.2,1.4.3,1.9,0,0,0,0-.2.1-.1,0-.2,0-.2,0-.2-2.1-1.7-2.9-4.4-2.6l-3.4.4,1,8.1c.1.8.3,1.3.6,1.6.3.3.9.4,1.6.3l1.8-.2c3.2-.4,5-2.2,5.5-5.4,0,0,0,0,.1,0h0Z"/>
  <path d="M260.1,166.6c0,.1,0,.2-.1.2-.5,0-1.2.1-2.2.2s-1.7.1-2.2.2c-.6,0-1.3.2-2.1.3-.8.1-1.4.2-1.9.3-.1,0-.1,0-.2-.2,0-.1,0-.2.1-.2.7,0,1.2-.2,1.5-.4.3-.2.4-.5.4-.8s-.3-.9-.8-1.8l-3.4-5.2-8.6,1.1-1.2,4.1c-.2.8-.3,1.4-.2,2,.1.8.5,1.4,1.1,1.8.6.4,1.5.5,2.6.3.1,0,.2,0,.2.2s0,.2-.1.2c-.4,0-1.1.1-1.9.2-.9,0-1.7.1-2.4.2-.6,0-1.4.2-2.2.4-.8.1-1.4.2-1.9.3-.1,0-.2,0-.2-.2,0-.1,0-.2.1-.2.7,0,1.2-.3,1.6-.6s.8-.8,1.1-1.6c.4-.7.7-1.8,1.2-3.2l5.6-18.2c0,0,.1-.1.3-.1.2,0,.3,0,.3,0l10.9,16.6c1,1.6,1.9,2.7,2.5,3.3.6.6,1.3.8,1.9.7.1,0,.2,0,.2.2h0ZM240.8,159.4l7.8-1-5.1-7.8-2.7,8.8h0Z"/>
  <path d="M268.6,162.7c0,.6.2,1.1.3,1.4.1.3.4.4.7.5.3,0,.8,0,1.5,0l2.1-.3c1.7-.2,3.1-.9,4.1-1.9,1-1.1,1.7-2.4,1.9-4.1,0,0,0-.1.2-.1.1,0,.2,0,.2.1,0,2.3.2,4.1.4,5.6,0,.2,0,.3,0,.4s-.2.1-.4.2l-16.7,2.1s0,0-.1-.2c0-.1,0-.2,0-.2.8-.1,1.4-.2,1.8-.4.4-.2.6-.4.7-.8s0-.9,0-1.6l-2-16.5c0-.7-.2-1.2-.4-1.6s-.5-.5-.9-.6c-.4,0-1,0-1.8,0,0,0,0,0-.1-.2,0-.1,0-.2,0-.2l1.8-.2c1,0,1.9-.2,2.6-.2.7,0,1.6-.2,2.6-.4l1.8-.3c0,0,.1,0,.1.2,0,.1,0,.2,0,.2-.8.1-1.4.2-1.7.4-.4.2-.6.4-.7.8s0,.9,0,1.6l2,16.4h0Z"/>
  <path d="M284.3,143.3c-.8,1-1.4,2.4-1.7,4.3,0,0,0,0-.2.1s-.2,0-.2,0c0-.9,0-2.1-.1-3.6,0-1.5-.1-2.6-.2-3.3,0-.1,0-.2.2-.2.1,0,.2,0,.2.1,0,.5.8.7,2.1.5,2.1-.2,4.5-.4,7.2-.8,1.4-.2,2.9-.4,4.5-.6l2.4-.3c.9-.1,1.6-.2,2-.4s.6-.4.7-.8c0-.1,0-.1.2-.2s.2,0,.2.1c0,.8,0,1.9.2,3.4.1,1.5.2,2.7.3,3.7,0,0,0,.1-.2.1-.1,0-.2,0-.2,0-.5-1.8-1.2-3.1-2.2-3.9-1-.8-2.2-1.1-3.7-.9-.7,0-1.1.2-1.5.4s-.5.4-.6.7,0,.8,0,1.4l2,16.5c0,.7.2,1.3.4,1.6.2.3.5.5.9.6.4,0,1.1,0,2.1,0,0,0,.1,0,.1.2,0,.1,0,.2,0,.2-.8.1-1.5.2-2,.2l-2.9.3-2.8.4c-.5,0-1.2.2-2.1.3,0,0,0,0-.1-.2,0-.1,0-.2,0-.2.9-.1,1.6-.3,2-.4.4-.2.7-.4.8-.8s.1-.9,0-1.6l-2-16.5c0-.6-.2-1.1-.4-1.3-.1-.3-.4-.4-.7-.5-.3,0-.8,0-1.5,0-1.5.2-2.6.8-3.4,1.8h0Z"/>
  <path d="M333.6,157.6c0,.1,0,.2,0,.2-.8.1-1.5.2-2,.2l-2.6.3-3,.4c-.4,0-1,.2-1.7.2,0,0-.1,0-.1-.2,0-.1,0-.2,0-.2.9-.1,1.5-.2,1.9-.4s.6-.4.7-.8c.1-.4.1-.9,0-1.6l-1-8.2-12.3,1.5,1,8.2c0,.7.2,1.2.4,1.6.2.3.5.5.9.6.4,0,1.1,0,2,0,0,0,0,0,.1.2,0,.1,0,.2,0,.2-.8.1-1.4.2-1.9.2l-3,.3-2.6.4c-.5,0-1.1.2-1.9.3,0,0,0,0-.1-.2,0-.1,0-.2,0-.2.9-.1,1.5-.2,1.9-.4.4-.2.6-.4.7-.8.1-.4.1-.9,0-1.6l-2-16.5c0-.7-.2-1.2-.4-1.6-.2-.3-.5-.5-.9-.6s-1,0-1.9,0c0,0,0,0-.1-.2,0-.1,0-.2,0-.2l1.9-.2c1.1,0,2-.2,2.6-.2.8-.1,1.8-.2,3-.4l1.9-.3s0,0,.1.2c0,.1,0,.2,0,.2-.9.1-1.5.3-1.9.4-.4.2-.7.5-.8.8s-.1.9,0,1.6l.9,7.3,12.3-1.5-.9-7.3c0-.7-.2-1.2-.4-1.6-.2-.3-.5-.5-.9-.6-.4,0-1.1,0-2,0,0,0-.1,0-.1-.2,0-.1,0-.2,0-.2l1.7-.2c1.1,0,2.2-.2,3-.3.6,0,1.5-.2,2.6-.4l2-.3c0,0,.1,0,.1.2,0,.1,0,.2,0,.2-.9.1-1.5.2-1.9.4s-.6.4-.7.8c-.1.4-.1.9,0,1.6l2,16.5c0,.7.2,1.2.4,1.6s.5.5.9.6,1,0,1.9,0c0,0,.1,0,.1.2h0Z"/>
  <path d="M355.3,133.2c.2,0,.3.1.4.2,0,0,.1.3.2.5l1,4.7c0,0,0,.1-.2.2-.1,0-.2,0-.3,0-.9-1.9-2-3.2-3.3-4.1-1.4-.9-2.9-1.2-4.7-1-1.7.2-3.2.8-4.5,1.9-1.3,1-2.2,2.4-2.7,4.1-.6,1.7-.7,3.7-.4,5.8.3,2.1.9,4,1.9,5.6,1,1.6,2.3,2.8,3.8,3.5,1.5.8,3.2,1,4.9.8,1.7-.2,3.1-.9,4.2-1.9s1.9-2.6,2.5-4.8c0,0,0-.1.2-.1.1,0,.2,0,.2,0v4.3c0,.3,0,.5,0,.6,0,0-.2.2-.3.3-2,1.1-4.3,1.9-6.7,2.2-2.5.3-4.9.1-7-.6s-3.9-1.9-5.2-3.5-2.1-3.6-2.4-5.8c-.3-2.2,0-4.3,1-6.2,1-1.9,2.4-3.5,4.3-4.7,1.9-1.2,4.1-2,6.6-2.3,2.6-.3,4.8-.2,6.5.3h0Z"/>
  <path d="M388.2,150.9c0,.1,0,.2-.1.2-.5,0-1.2.1-2.2.2s-1.7.1-2.2.2c-.6,0-1.3.2-2.1.3-.8.1-1.4.2-1.9.3-.1,0-.1,0-.2-.2,0-.1,0-.2.1-.2.7,0,1.2-.2,1.5-.4s.4-.5.4-.8-.3-.9-.8-1.8l-3.4-5.2-8.6,1.1-1.2,4.1c-.2.8-.3,1.4-.2,2,.1.8.5,1.4,1.1,1.8s1.5.5,2.6.3c.1,0,.2,0,.2.2,0,.1,0,.2-.1.2-.4,0-1,.1-1.9.2-.9,0-1.7.1-2.4.2-.6,0-1.4.2-2.2.4-.8.1-1.4.2-1.9.3-.1,0-.2,0-.2-.2,0-.1,0-.2.1-.2.7,0,1.2-.3,1.6-.6s.8-.8,1.1-1.6c.4-.7.7-1.8,1.2-3.2l5.6-18.2c0,0,.1-.1.3-.1.2,0,.3,0,.3,0l10.9,16.6c1,1.6,1.9,2.7,2.5,3.3.6.6,1.3.8,1.9.7.1,0,.2,0,.2.2h0ZM369,143.7l7.8-1-5.1-7.8-2.7,8.8h0Z"/>
  <path d="M414.9,147.6c0,.1,0,.2,0,.2l-5.8.7c-.5,0-1.7-.8-3.4-2.5-1.7-1.7-3.9-4.2-6.4-7.3-.5.1-.9.2-1.2.2-.5,0-1.1.1-1.9.2l1,8c0,.7.2,1.3.4,1.6.2.3.5.5.8.6.4,0,1,0,1.8,0,0,0,0,0,.1.2,0,.1,0,.2,0,.2-.8.1-1.4.2-1.8.2l-2.6.3-2.6.4c-.5,0-1.1.2-1.9.3,0,0-.1,0-.1-.2,0-.1,0-.2,0-.2.8-.1,1.4-.2,1.8-.4.4-.2.6-.4.7-.8s.1-.9,0-1.6l-2-16.5c0-.7-.2-1.2-.4-1.6s-.5-.5-.9-.6c-.4,0-1,0-1.8,0,0,0,0,0-.1-.2,0-.1,0-.2,0-.2l1.9-.2c1,0,1.9-.2,2.5-.2.8,0,1.6-.2,2.6-.4.3,0,.7-.1,1.1-.2s.9-.2,1.5-.2c2.1-.2,3.7,0,5,.6,1.2.7,1.9,1.7,2.1,3.2.2,1.3,0,2.5-.7,3.7s-1.5,2.1-2.6,2.9c2.3,2.6,4.2,4.7,5.7,6.1,1.5,1.5,2.8,2.5,3.9,3.1,1.1.6,2.1.8,3.1.7,0,0,.1,0,.1.2h0ZM398.2,138c1.5-.2,2.6-.7,3.2-1.6s.8-2.1.5-3.9c-.2-1.9-.7-3.2-1.5-3.9-.8-.7-1.7-.9-3-.8-.9.1-1.6.4-1.9.8s-.5,1-.4,1.9l.9,7.5c.6,0,1.3,0,2.1-.1h0Z"/>
  <path d="M433.2,139.8c0,0,.1,0,.2,0s.1,0,.1,0c0,1.8,0,3.5.2,5,0,.2,0,.3,0,.4s-.2.1-.4.2l-15.5,1.9c0,0-.1,0-.1-.2,0-.1,0-.2,0-.2.8-.1,1.4-.2,1.8-.4.4-.2.6-.4.7-.8,0-.4,0-.9,0-1.6l-2-16.5c0-.7-.2-1.2-.4-1.6s-.5-.5-.9-.6c-.4,0-1,0-1.8,0,0,0-.1,0-.1-.2,0-.1,0-.2,0-.2l14.9-1.8c.2,0,.4,0,.4.3l.6,4.6s0,0-.2.1c-.1,0-.2,0-.2,0-.9-2.7-2.7-3.8-5.5-3.5l-1.4.2c-.9,0-1.5.3-1.8.7-.3.3-.4.9-.3,1.6l.9,7.3,3.4-.4c2.6-.3,3.8-1.4,3.6-3.1,0,0,0-.1.2-.1s.2,0,.2,0l.4,3.1.2,1.7c.1.8.2,1.4.3,1.9,0,0,0,0-.2.1-.1,0-.2,0-.2,0-.2-2.1-1.7-2.9-4.4-2.6l-3.4.4,1,8.1c.1.8.3,1.3.6,1.6.3.3.9.4,1.6.3l1.8-.2c3.2-.4,5-2.2,5.5-5.4,0,0,0,0,.1,0h0Z"/>
  <path d="M455.6,141.5c.2.3.4.5.8.6.4,0,1,0,1.8,0,0,0,.1,0,.1.2,0,.1,0,.2,0,.2-.8,0-1.4.2-1.8.2l-2.6.3-2.6.4c-.5,0-1.1.2-1.9.3,0,0-.1,0-.1-.2,0-.1,0-.2,0-.2.8-.1,1.4-.2,1.8-.4.4-.2.6-.4.7-.8s.1-.9,0-1.6l-2-16.5c0-.7-.2-1.2-.4-1.6s-.5-.5-.9-.6c-.4,0-1,0-1.8,0,0,0-.1,0-.1-.2,0-.1,0-.2,0-.2l1.9-.2c1,0,1.9-.2,2.6-.2.7,0,1.6-.2,2.7-.4l1.8-.2c0,0,.1,0,.1.2,0,.1,0,.2,0,.2-.8,0-1.4.2-1.7.4-.4.2-.6.5-.7.8s0,.9,0,1.6l2,16.5c0,.7.2,1.3.4,1.6h0Z"/>
  <path d="M484.7,116.8c0,.1,0,.2,0,.2-1,.1-1.6.6-2.1,1.3s-.6,1.8-.4,3l2.3,18.5c0,0,0,.1-.2.2-.1,0-.2,0-.2,0l-19.1-17.4,1.8,14.5c.1,1.3.5,2.2,1.1,2.8.6.6,1.4.9,2.3.7,0,0,0,0,.1.2,0,.1,0,.2,0,.2-.6,0-1.1.1-1.5.1l-1.9.2-2.1.3c-.4,0-.9.1-1.6.2,0,0-.1,0-.1-.2,0-.1,0-.2,0-.2,1-.1,1.8-.6,2.2-1.3.5-.7.6-1.7.5-3l-1.9-15.7c-.8-.6-1.4-1.1-2-1.3-.6-.2-1.1-.3-1.7-.2,0,0,0,0-.1-.2,0-.1,0-.2,0-.2h1.4c.3-.2.8-.2,1.3-.3l2.3-.3c.3,0,.6-.1,1-.2.2,0,.3,0,.5,0,.1,0,.3.3.5.5l1,1,14.7,13.6-1.5-12.7c-.1-1.3-.5-2.2-1.1-2.8-.6-.6-1.3-.9-2.3-.8,0,0,0,0-.1-.2,0-.1,0-.2,0-.2h1.5c.8-.2,1.4-.2,1.9-.3.5,0,1.1-.2,1.9-.3l1.6-.2s0,0,.1.2h0Z"/>
  <path d="M512.6,113.4c0,.1,0,.2,0,.2-1,.1-1.6.6-2.1,1.3s-.6,1.8-.4,3l2.3,18.5c0,0,0,.1-.2.2-.1,0-.2,0-.2,0l-19.1-17.4,1.8,14.5c.1,1.3.5,2.2,1.1,2.8.6.6,1.4.9,2.3.7,0,0,0,0,.1.2,0,.1,0,.2,0,.2-.6,0-1.1.1-1.5.1l-1.9.2-2.1.3c-.4,0-.9.1-1.6.2,0,0-.1,0-.1-.2,0-.1,0-.2,0-.2,1-.1,1.8-.6,2.2-1.3.5-.7.6-1.7.5-3l-1.9-15.7c-.8-.6-1.4-1.1-2-1.3-.6-.2-1.1-.3-1.7-.2,0,0,0,0-.1-.2,0-.1,0-.2,0-.2h1.4c.3-.2.8-.2,1.3-.3l2.3-.3c.3,0,.6-.1,1-.2.2,0,.3,0,.5,0,.1,0,.3.3.5.5l1,1,14.7,13.6-1.5-12.7c-.2-1.3-.5-2.2-1.1-2.8-.6-.6-1.3-.9-2.3-.8,0,0,0,0-.1-.2,0-.1,0-.2,0-.2h1.5c.8-.2,1.4-.2,1.9-.3.5,0,1.1-.2,1.9-.3l1.6-.2s0,0,0,.2h0Z"/>
  <path d="M524.6,133.2c-1.8-.8-3.4-2.1-4.5-3.7-1.2-1.7-1.9-3.5-2.1-5.6-.3-2.4,0-4.6,1.1-6.5s2.5-3.4,4.3-4.5c1.8-1.1,3.8-1.8,5.8-2.1,2.3-.3,4.3,0,6.2.9,1.8.8,3.3,2.1,4.5,3.7,1.1,1.6,1.8,3.4,2.1,5.4.3,2.2,0,4.2-1,6.2s-2.3,3.6-4.1,4.9c-1.8,1.3-3.8,2.1-6,2.3-2.2.3-4.2,0-6.1-.8h0ZM535.5,131.4c1-.9,1.8-2.2,2.3-3.7.5-1.6.6-3.4.3-5.5-.3-2.2-.9-4.1-1.8-5.8s-2.1-2.9-3.6-3.7c-1.5-.8-3.1-1.1-4.9-.9-2.3.3-4,1.3-5.1,3.1s-1.4,4.2-1.1,7.1c.3,2.3.9,4.3,1.9,6,1,1.7,2.2,3.1,3.6,3.9s3,1.2,4.7,1c1.4-.2,2.7-.7,3.7-1.6h0Z"/>
  <path d="M567.9,106.6c0,.1,0,.2,0,.2-.9.1-1.6.5-2.2,1.3-.6.7-1.1,1.7-1.4,3l-4.7,19c0,.1-.1.2-.4.2s-.4,0-.4-.1l-11.4-18.2c-.5-.8-1-1.4-1.5-1.8-.5-.3-1-.5-1.6-.4,0,0-.1,0-.1-.2,0-.1,0-.2,0-.2h.9c.5,0,1.1-.2,1.8-.2,1.7-.2,3.2-.4,4.5-.6.4,0,.9-.1,1.5-.2,0,0,.1,0,.1.2,0,.1,0,.2,0,.2-1.5.2-2.2.8-2.1,1.8,0,.4.2.8.5,1.3l8.4,13.4,3.5-14.2c.1-.6.2-1.1.1-1.6,0-.7-.4-1.2-.8-1.5-.5-.3-1.2-.4-2-.3,0,0-.1,0-.1-.2,0-.1,0-.2,0-.2l1.7-.2c.9,0,1.8-.1,2.5-.2.5,0,1-.2,1.7-.3l1.5-.2c0,0,.1,0,.1.2h0Z"/>
  <path d="M597.7,125.1c0,.1,0,.2-.2.2-.5,0-1.2.1-2.2.2-1,0-1.7.1-2.2.2-.6,0-1.3.2-2.1.3s-1.4.2-1.9.3c0,0-.2,0-.2-.2,0-.1,0-.2.1-.2.7,0,1.2-.2,1.5-.4s.4-.5.4-.8-.3-.9-.8-1.8l-3.4-5.2-8.7,1.1-1.2,4.1c-.2.8-.3,1.4-.2,2,0,.8.5,1.4,1.1,1.8s1.5.5,2.6.3c.1,0,.2,0,.2.2s0,.2-.2.2c-.4,0-1,.1-1.9.2-.9,0-1.7.1-2.4.2-.6,0-1.4.2-2.2.4-.8.1-1.4.2-1.9.3-.1,0-.2,0-.2-.2,0-.1,0-.2.2-.2.7,0,1.2-.3,1.6-.6s.8-.8,1.2-1.6c.3-.7.7-1.8,1.2-3.2l5.6-18.2c0,0,.1-.1.3-.2.2,0,.3,0,.3,0l10.9,16.6c1,1.6,1.9,2.7,2.5,3.3.6.6,1.3.8,1.9.7.1,0,.2,0,.2.2h0ZM578.5,117.9l7.8-1-5.1-7.8-2.7,8.8h0Z"/>
  <path d="M600.8,104.4c-.8,1-1.4,2.4-1.7,4.3,0,0,0,0-.2,0s-.2,0-.2,0c0-.9,0-2.2-.1-3.6,0-1.5-.1-2.6-.2-3.3,0-.1,0-.2.2-.2.1,0,.2,0,.2.2,0,.5.8.7,2.1.5,2.1-.2,4.5-.4,7.2-.8,1.4-.2,2.9-.4,4.5-.6l2.4-.3c.9-.1,1.6-.2,2-.4s.6-.4.7-.8c0,0,0-.2.2-.2.1,0,.2,0,.2.1,0,.8,0,1.9.2,3.4s.2,2.7.3,3.7c0,0,0,.1-.2.1-.1,0-.2,0-.2,0-.5-1.8-1.2-3.1-2.2-3.8s-2.2-1.1-3.7-.9c-.7,0-1.2.2-1.5.4s-.5.4-.6.7c0,.3,0,.8,0,1.4l2,16.5c0,.7.2,1.3.4,1.6.2.3.5.5.9.6.4,0,1.1,0,2.1,0,0,0,.1,0,.1.2,0,.1,0,.2,0,.2-.8,0-1.5.2-2,.2l-2.9.3-2.8.4c-.5,0-1.2.2-2.1.3,0,0,0,0,0-.2,0-.1,0-.2,0-.2.9-.1,1.6-.3,2-.4.4-.2.7-.4.8-.8.1-.4.1-.9,0-1.6l-2-16.5c0-.6-.2-1.1-.3-1.3-.2-.3-.4-.4-.7-.5-.3,0-.8,0-1.5,0-1.5.2-2.6.8-3.4,1.8h0Z"/>
  <path d="M631.8,119.9c.2.3.4.5.8.6.4,0,1,0,1.8,0,0,0,.1,0,.1.2,0,.1,0,.2,0,.2-.8,0-1.4.2-1.8.2l-2.7.3-2.6.3c-.5,0-1.1.2-1.8.3,0,0-.1,0-.1-.2,0-.1,0-.2,0-.2.8,0,1.4-.2,1.8-.4.3-.2.6-.4.7-.8s.1-.9,0-1.6l-2-16.5c0-.7-.2-1.2-.4-1.6-.2-.3-.5-.5-.8-.6-.4,0-1,0-1.8,0,0,0-.1,0-.1-.2,0-.1,0-.2,0-.2l1.9-.2c1,0,1.9-.2,2.6-.2.7,0,1.6-.2,2.7-.4l1.8-.3c0,0,.1,0,.1.2,0,.1,0,.2,0,.2-.8,0-1.3.2-1.7.4-.3.2-.6.5-.7.8,0,.4,0,.9,0,1.6l2,16.5c0,.7.2,1.3.4,1.6h0Z"/>
  <path d="M644.9,118.4c-1.8-.8-3.4-2.1-4.5-3.7-1.2-1.7-1.9-3.5-2.1-5.6-.3-2.4,0-4.6,1.1-6.5s2.5-3.4,4.3-4.5c1.8-1.1,3.8-1.8,5.8-2.1,2.3-.3,4.3,0,6.2.9,1.8.8,3.3,2.1,4.5,3.7,1.1,1.6,1.8,3.4,2.1,5.4.3,2.2,0,4.2-1,6.2s-2.3,3.6-4.1,4.8c-1.8,1.3-3.8,2.1-6,2.3-2.2.3-4.2,0-6.1-.8h0ZM655.9,116.6c1-.9,1.8-2.2,2.3-3.7.5-1.6.6-3.4.3-5.5-.3-2.2-.9-4.1-1.8-5.8s-2.1-2.9-3.6-3.7c-1.5-.8-3.1-1.1-4.9-.9-2.3.3-4,1.3-5.1,3.1s-1.4,4.2-1.1,7.1c.3,2.3.9,4.3,1.9,6s2.2,3.1,3.6,3.9c1.5.9,3,1.2,4.7,1,1.4-.2,2.7-.7,3.7-1.6h0Z"/>
  <path d="M690,91.6c0,.1,0,.2,0,.2-1,.1-1.7.6-2.1,1.3s-.6,1.8-.4,3l2.3,18.5c0,0,0,.1-.2.2s-.2,0-.2,0l-19.2-17.4,1.8,14.5c.2,1.3.5,2.2,1.1,2.8.6.6,1.3.8,2.3.7,0,0,0,0,0,.2,0,.1,0,.2,0,.2-.6,0-1.1.1-1.5.1l-1.9.2-2.1.3c-.4,0-.9.2-1.6.2,0,0-.1,0-.1-.2s0-.2,0-.2c1-.1,1.8-.6,2.2-1.3.5-.7.6-1.7.5-3l-1.9-15.7c-.8-.6-1.4-1.1-2-1.3s-1.1-.3-1.7-.2c0,0,0,0,0-.2,0-.1,0-.2,0-.2h1.4c.3-.2.8-.2,1.3-.3l2.3-.3c.3,0,.6-.1,1-.2.2,0,.3,0,.5,0,.1,0,.3.3.5.5l1,1,14.7,13.6-1.5-12.7c-.2-1.3-.5-2.2-1.1-2.8-.6-.6-1.3-.9-2.3-.8,0,0,0,0,0-.2,0-.1,0-.2,0-.2h1.5c.8-.2,1.4-.2,1.9-.3.5,0,1.1-.2,1.9-.3l1.6-.2s0,0,0,.2h0Z"/>
  <path d="M730.7,108.8c0,.1,0,.2-.2.2-.5,0-1.2.1-2.2.2-1,0-1.7.1-2.2.2-.6,0-1.3.2-2.1.3s-1.4.2-1.9.3c0,0-.2,0-.2-.2,0-.1,0-.2.1-.2.7,0,1.2-.2,1.5-.4.3-.2.4-.5.4-.8s-.3-.9-.8-1.8l-3.4-5.2-8.7,1.1-1.2,4.1c-.2.8-.3,1.4-.2,2,0,.8.5,1.4,1.1,1.8.7.4,1.5.5,2.6.3.1,0,.2,0,.2.2s0,.2-.2.2c-.4,0-1,.1-1.9.2-.9,0-1.7.1-2.4.2-.6,0-1.4.2-2.2.3-.8.1-1.4.2-1.9.3-.1,0-.2,0-.2-.2s0-.2.2-.2c.7,0,1.2-.3,1.6-.6s.8-.8,1.2-1.6c.3-.7.7-1.8,1.2-3.2l5.6-18.2c0,0,.1-.1.3-.2.2,0,.3,0,.3,0l10.9,16.6c1,1.6,1.9,2.7,2.5,3.3.6.6,1.3.8,1.9.7.1,0,.2,0,.2.2ZM711.5,101.6l7.8-1-5.1-7.8-2.7,8.8h0Z"/>
  <path d="M762.7,82.7c0,.1,0,.2,0,.2-.9.1-1.6.5-2.2,1.2s-1.1,1.7-1.4,3l-4.7,19c0,0-.1.2-.4.2s-.4,0-.4,0l-5.8-9.3-2.5,10.3c0,0-.1.2-.4.2s-.4,0-.4,0l-11.4-18.2c-.6-1-1.1-1.6-1.5-1.9-.4-.3-.9-.4-1.6-.3,0,0-.1,0-.1-.2,0-.1,0-.2,0-.2h.9c.5,0,1.1-.2,1.8-.2,1.3-.2,2.5-.3,3.6-.5.3,0,.8-.1,1.2-.2,0,0,.1,0,.1.2,0,.1,0,.2,0,.2-.6,0-1.1.2-1.3.4-.3.2-.4.4-.3.8,0,.4.3,1.1.9,1.9l8.6,13.7,1.8-7-4.9-7.8c-.5-.8-1-1.4-1.4-1.8-.4-.4-.9-.5-1.4-.4,0,0-.1,0-.1-.2,0-.1,0-.2,0-.2h.9c.5,0,1.1-.1,1.6-.2,1.1-.1,2.1-.3,3-.4.2,0,.5,0,.9-.2,0,0,.1,0,.1.2,0,.1,0,.2,0,.2-.4,0-.6.1-.8.2-.2,0-.2.3-.2.5,0,.4.4,1.1,1.2,2.2l2.4,3.8.9-3.6c.3-1.2.4-2,.3-2.6,0-.7-.5-1-1.2-.9,0,0-.1,0-.1-.2,0-.1,0-.2,0-.2.2,0,.5,0,.8,0s.8,0,1.6-.1c.4,0,.9-.1,1.5-.3l1.4-.2s0,0,0,.2c0,.1,0,.2,0,.2-.8,0-1.5.5-2,1.2-.5.7-1,1.7-1.3,3.1l-1.2,4.6,5.5,8.8,3.5-14.2c.2-.7.2-1.2.1-1.8,0-.7-.3-1.2-.8-1.5s-1-.4-1.7-.3c0,0-.1,0-.1-.2,0-.1,0-.2,0-.2l1.6-.2c.9,0,1.6-.1,2.3-.2.5,0,1-.2,1.6-.3l1.5-.2s0,0,0,.2h0Z"/>
  <path d="M792.5,101.2c0,.1,0,.2-.2.2-.5,0-1.2.1-2.2.2-1,0-1.7.1-2.2.2-.6,0-1.3.2-2.1.3s-1.4.2-1.9.3c0,0-.2,0-.2-.2,0-.1,0-.2.1-.2.7,0,1.2-.2,1.5-.4.3-.2.4-.5.4-.8s-.3-.9-.8-1.8l-3.4-5.2-8.7,1.1-1.2,4.1c-.2.8-.3,1.4-.2,2,0,.8.5,1.4,1.1,1.8s1.5.5,2.6.3c.1,0,.2,0,.2.2s0,.2-.2.2c-.4,0-1,.1-1.9.2-.9,0-1.7.1-2.4.2-.6,0-1.4.2-2.2.3-.8.1-1.4.2-1.9.3-.1,0-.2,0-.2-.2s0-.2.2-.2c.7,0,1.2-.3,1.6-.6s.8-.8,1.2-1.6c.3-.7.7-1.8,1.2-3.2l5.6-18.2c0,0,.1-.1.3-.2.2,0,.3,0,.3,0l10.9,16.6c1,1.6,1.9,2.7,2.5,3.3.6.6,1.3.8,1.9.7.1,0,.2,0,.2.2h0ZM773.2,94l7.8-1-5.1-7.8-2.7,8.8h0Z"/>
  <path d="M819.2,97.9c0,.1,0,.2,0,.2l-5.8.7c-.5,0-1.7-.8-3.4-2.5-1.7-1.7-3.9-4.2-6.4-7.3-.5.1-.9.2-1.2.2-.5,0-1.2.1-1.9.2l1,8c0,.7.2,1.3.4,1.6.2.3.5.5.8.6.4,0,1,0,1.8,0,0,0,0,0,0,.2,0,.1,0,.2,0,.2-.8,0-1.4.2-1.8.2l-2.7.3-2.6.3c-.5,0-1.1.2-1.8.3,0,0-.1,0-.1-.2,0-.1,0-.2,0-.2.8,0,1.4-.2,1.8-.4.3-.2.6-.4.7-.8s.1-.9,0-1.6l-2-16.5c0-.7-.2-1.2-.4-1.6-.2-.3-.5-.5-.8-.6-.4,0-1,0-1.8,0,0,0,0,0,0-.2,0-.1,0-.2,0-.2l1.9-.2c1,0,1.9-.2,2.5-.2.8,0,1.6-.2,2.6-.4.3,0,.7-.1,1.1-.2s.9-.2,1.5-.2c2.1-.2,3.7,0,5,.6,1.2.7,1.9,1.7,2.1,3.2.2,1.3,0,2.5-.7,3.7s-1.5,2.1-2.6,2.9c2.3,2.6,4.2,4.7,5.7,6.2,1.5,1.5,2.8,2.5,3.9,3.1,1.1.6,2.1.8,3.1.7,0,0,.1,0,.1.2h0ZM802.5,88.4c1.5-.2,2.6-.7,3.2-1.6s.8-2.1.5-3.9c-.2-1.9-.7-3.2-1.5-3.9-.8-.7-1.7-.9-3-.8-.9.1-1.6.4-1.9.8s-.5,1-.4,1.9l.9,7.5c.6,0,1.3,0,2.1-.1h0Z"/>
  <path d="M829.4,97c-.4,0-.8,0-1.4,0-.5,0-1.2.1-1.9.2l-2.5.3c-.5,0-1.1.2-1.9.3,0,0,0,0,0-.2,0-.1,0-.2,0-.2.8,0,1.4-.2,1.8-.4.3-.2.6-.4.7-.8s.1-.9,0-1.6l-2-16.5c0-.7-.2-1.2-.4-1.6-.2-.3-.5-.5-.8-.6-.4,0-1,0-1.8,0,0,0,0,0,0-.2,0-.1,0-.2,0-.2l1.9-.2c1,0,1.9-.2,2.5-.2,1-.1,1.9-.3,2.9-.5,1.2-.2,2-.3,2.4-.4,2.4-.3,4.6,0,6.6.6,2,.7,3.6,1.8,4.8,3.4,1.2,1.5,2,3.3,2.2,5.3.3,2.3,0,4.4-.9,6.3-.8,1.9-2.1,3.4-3.8,4.6s-3.6,1.9-5.8,2.2c-.7,0-1.6.2-2.6.2h0ZM835.7,94.4c1.2-.9,2-2.2,2.6-3.8.5-1.6.7-3.5.4-5.7-.2-2.1-.8-3.9-1.7-5.4s-2-2.8-3.4-3.6c-1.4-.8-2.9-1.1-4.5-.9-1,.1-1.8.3-2.3.5-.5.2-.9.5-1.1.8s-.3.9-.2,1.5l2,16.1c.1,1,.5,1.6,1,2s1.5.4,3,.3c1.6-.2,3-.8,4.2-1.7h0Z"/>
  <path d="M851.9,77.7c.5.6,1.1,1.2,1.9,1.6s1.7.9,2.9,1.5c1.3.6,2.3,1.2,3.1,1.6s1.5,1.1,2,1.8c.6.7,1,1.6,1.1,2.7.2,1.2,0,2.3-.5,3.4-.5,1-1.3,1.9-2.4,2.6-1.1.7-2.4,1.1-3.8,1.3-1,.1-2,.1-3.1,0-1.1-.1-1.9-.3-2.5-.7-.2-.1-.4-.3-.4-.6l-.9-5.4h0c0-.1,0-.2.2-.2.1,0,.2,0,.2,0,1,1.9,2.1,3.4,3.3,4.5,1.2,1.1,2.5,1.6,4.1,1.4,1-.1,1.8-.5,2.5-1.2s.8-1.6.7-2.9c-.1-1.1-.5-1.9-1-2.7s-1.2-1.3-2-1.8-1.8-1-3-1.6c-1.2-.6-2.2-1.1-2.9-1.6-.7-.4-1.3-1-1.9-1.7-.5-.7-.9-1.5-1-2.5-.2-1.2,0-2.3.7-3.3.6-.9,1.4-1.7,2.5-2.2s2.2-.9,3.4-1.1c.8,0,1.6-.1,2.5,0,.8,0,1.5.2,2.1.3.4,0,.6.3.6.6l.7,4.8c0,0,0,.1-.2.2s-.2,0-.2,0c-.7-1.4-1.5-2.6-2.4-3.7-.9-1.1-2.2-1.5-3.8-1.3-1.1.1-1.9.5-2.4,1.2-.6.7-.8,1.6-.6,2.7.1.9.4,1.6,1,2.3h0Z"/>
  <path class="st0" d="M870.5,81.1l14.1-3.8c.8-.2,1.6.3,1.8,1,.2.8-.2,1.6-1,1.8,0,0-.2,0-.3,0,0,0-14.5.9-14.5.9Z"/>
  <path class="st0" d="M893,77.5c-3.7,2.1-8.1,5.3-10.6,8.4l1.3-6.9-3.4-6.1c3.4,2.1,8.6,3.8,12.8,4.6Z"/>
  <path class="st0" d="M905.7,75.9l14.1-3.8c.8-.2,1.6.3,1.8,1,.2.8-.2,1.6-1,1.8,0,0-.2,0-.3,0,0,0-14.5.9-14.5.9Z"/>
  <path class="st0" d="M928.2,72.3c-3.7,2.1-8.1,5.3-10.6,8.4l1.3-6.9-3.4-6.1c3.4,2.1,8.6,3.8,12.8,4.6Z"/>
  <path class="st0" d="M945.4,70.1l14.1-3.8c.8-.2,1.6.3,1.8,1,.2.8-.2,1.6-1,1.8,0,0-.2,0-.3,0,0,0-14.5.9-14.5.9Z"/>
  <path class="st0" d="M967.9,66.4c-3.7,2.1-8.1,5.3-10.6,8.4l1.3-6.9-3.4-6.1c3.4,2.1,8.6,3.8,12.8,4.6Z"/>
  <g>
    <path d="M78.4,380.1c1.1-.6,1.8-1.7,2-3.2.2-1.5.2-3.9-.2-7,0-.3.2-.4.7-.5.5,0,.8,0,.8.3.3,2.5.5,4.5.6,5.9l.9,8.7,1.2,8.5c.3,1.5.6,3.5.9,6,0,.3-.2.4-.7.5-.5,0-.8,0-.8-.3-.4-3-.9-5.2-1.5-6.7-.6-1.5-1.6-2.4-2.8-2.8-1.2-.4-3.1-.4-5.6-.1l-28.1,3.5c-2.6.3-4.4.8-5.6,1.4-1.1.6-1.8,1.7-2,3.2-.2,1.5-.2,3.9.2,7,0,.3-.2.4-.7.5-.5,0-.8,0-.8-.3-.3-2.5-.5-4.5-.6-5.9l-.9-8.7-1.2-8.5c-.3-1.5-.6-3.5-.9-6,0-.3.2-.4.7-.5.5,0,.8,0,.8.3.4,3,.9,5.2,1.5,6.7.6,1.5,1.6,2.4,2.8,2.8,1.2.4,3.1.4,5.6.1l28.1-3.5c2.6-.3,4.4-.8,5.6-1.4Z"/>
    <path d="M41.4,427.5c1.8-4.3,4.5-7.7,8.2-10.4,3.7-2.7,8.1-4.4,13.1-5,4.9-.6,9.5,0,13.6,1.7,4.1,1.7,7.5,4.5,10.2,8.2,2.7,3.7,4.3,8.1,4.9,13.1.6,4.9,0,9.5-1.7,13.6-1.7,4.1-4.5,7.5-8.1,10.2-3.7,2.7-8,4.3-12.9,4.9-4.9.6-9.5,0-13.7-1.6-4.2-1.7-7.7-4.3-10.3-8-2.7-3.6-4.3-7.9-5-12.8-.6-4.9,0-9.5,1.7-13.8ZM49.1,452.6c4.3,2,9.9,2.5,16.8,1.7,8.5-1,14.6-3.5,18.5-7.2,3.9-3.8,5.6-8.1,5-13-.6-4.9-3.1-8.4-7.6-10.5-4.5-2.2-10.1-2.8-16.8-2-7.5.9-13.5,3.3-17.8,7.2-4.3,3.8-6.2,8.4-5.5,13.8.6,4.8,3,8.1,7.4,10.1Z"/>
    <path d="M46.2,479.1c.9-1.2,2.3-1.9,4.1-2.2,1.7-.2,3.1.2,4.2,1.1,1.1,1,1.8,2.3,2,4.1.2,1.8,0,3.3-.9,4.4-.8,1.1-2.1,1.8-3.9,2-1.8.2-3.3,0-4.5-1-1.2-.9-1.9-2.2-2.1-4.1-.2-1.8.1-3.2,1-4.5Z"/>
    <path d="M67.6,515.3c4.3,3.4,8,5.8,11.1,7.2,3.1,1.4,6.1,1.9,9,1.5,3.3-.4,6-1.8,7.9-4,1.9-2.3,2.6-5,2.2-8.2-.8-6.4-6.6-10.5-17.4-12.3,0,0-.1-.2-.2-.5,0-.8,0-1.1.4-1.1l20.1,2.6c.2,0,.3.1.3.5,0,.3,0,.5-.1.7,0,.2-.2.3-.3.2-.3,0-.8,0-1.4,0-1.3.2-1.9.9-1.8,2.1,0,.7.5,1.9,1.4,3.8,1.5,3.3,2.4,6.3,2.8,9,.5,4.4-.2,7.9-2.1,10.7-2,2.8-4.8,4.4-8.5,4.9-3.1.4-6.3-.3-9.5-1.9-3.2-1.6-6.5-4-10-7.1-3.4-3.1-8.1-7.5-13.9-13.5-.3-.2-.5-.3-.7-.1-.2.1-.2.4-.2.8,1.1,8.6,2,14.7,2.7,18.3.7,3.6,1.7,6.1,3,7.7,1.3,1.5,3.2,2.5,5.9,2.7.2,0,.3.2.3.6,0,.6,0,.9-.3.9l-13.4-.4c-.3,0-.7,0-1-.2-.3-.2-.5-.4-.5-.8l-4.7-38.3c0-.4.2-.8.7-1.1.5-.3,1-.3,1.3,0,6.9,6.6,12.5,11.7,16.8,15.1Z"/>
    <path d="M100.2,557.1c1.1-.6,1.8-1.7,2-3.2.2-1.5.2-3.9-.2-7,0-.3.2-.4.7-.5.5,0,.8,0,.8.3.3,2.5.5,4.5.6,5.9l.9,8.7,1.2,8.5c.3,1.5.6,3.5.9,6,0,.3-.2.4-.7.5-.5,0-.8,0-.8-.3-.4-3-.9-5.2-1.5-6.7-.6-1.5-1.6-2.4-2.8-2.8-1.2-.4-3.1-.4-5.6-.1l-28.1,3.5c-2.6.3-4.4.8-5.6,1.4-1.1.6-1.8,1.7-2,3.2-.2,1.5-.2,3.9.2,7,0,.3-.2.4-.7.5-.5,0-.8,0-.8-.3-.3-2.5-.5-4.5-.6-5.9l-.9-8.7-1.2-8.5c-.3-1.5-.6-3.5-.9-6,0-.3.2-.4.7-.5.5,0,.8,0,.8.3.4,3,.9,5.2,1.5,6.7.6,1.5,1.6,2.4,2.8,2.8,1.2.4,3.1.4,5.6.1l28.1-3.5c2.6-.3,4.4-.8,5.6-1.4Z"/>
  </g>
  <g>
    <path d="M24.6,210.1c2.8,2.3,5.3,3.8,7.3,4.7,2,.9,4,1.2,6,1,2.2-.3,3.9-1.2,5.2-2.7,1.2-1.5,1.7-3.3,1.5-5.4-.5-4.2-4.4-6.9-11.5-8.1,0,0,0-.1-.1-.3,0-.5,0-.7.3-.7l13.3,1.7c.1,0,.2,0,.2.3,0,.2,0,.3,0,.5,0,.1-.1.2-.2.1-.2,0-.5,0-.9,0-.9.1-1.3.6-1.2,1.4,0,.4.4,1.3.9,2.5,1,2.2,1.6,4.2,1.8,5.9.4,2.9-.1,5.2-1.4,7.1-1.3,1.8-3.2,2.9-5.6,3.2-2,.3-4.1-.2-6.3-1.3-2.1-1.1-4.3-2.6-6.6-4.7-2.3-2-5.3-5-9.2-8.9-.2-.1-.3-.2-.4,0-.1,0-.1.3,0,.6.7,5.7,1.3,9.7,1.8,12.1.5,2.4,1.1,4,2,5.1.8,1,2.1,1.6,3.9,1.8.1,0,.2.1.2.4,0,.4,0,.6-.2.6l-8.9-.3c-.2,0-.4,0-.6-.1-.2-.1-.3-.3-.4-.5l-3.1-25.3c0-.3.1-.5.5-.7.3-.2.6-.2.9,0,4.6,4.4,8.3,7.7,11.1,10Z"/>
    <path d="M18.3,241.5c1.2-2.8,3-5.1,5.4-6.9,2.4-1.8,5.3-2.9,8.6-3.3,3.3-.4,6.3,0,9,1.1,2.7,1.2,5,3,6.7,5.4,1.8,2.5,2.8,5.3,3.3,8.7.4,3.3,0,6.3-1.1,9-1.2,2.7-2.9,5-5.4,6.7-2.4,1.8-5.3,2.8-8.5,3.2-3.3.4-6.3,0-9.1-1.1-2.8-1.1-5.1-2.9-6.8-5.3s-2.9-5.2-3.3-8.5c-.4-3.3,0-6.3,1.2-9.1ZM23.4,258.1c2.9,1.3,6.6,1.7,11.1,1.1,5.6-.7,9.7-2.3,12.3-4.8,2.6-2.5,3.7-5.4,3.3-8.6s-2.1-5.5-5-7c-3-1.4-6.6-1.9-11.1-1.3-5,.6-8.9,2.2-11.8,4.7-2.9,2.5-4.1,5.6-3.6,9.1.4,3.2,2,5.4,4.9,6.7Z"/>
    <path d="M33.6,283c2.8,2.3,5.3,3.8,7.3,4.7,2,.9,4,1.2,6,1,2.2-.3,3.9-1.2,5.2-2.7,1.2-1.5,1.7-3.3,1.5-5.4-.5-4.2-4.4-6.9-11.5-8.1,0,0,0-.1-.1-.3,0-.5,0-.7.2-.7l13.3,1.7c.1,0,.2,0,.2.3,0,.2,0,.3,0,.5,0,.1-.1.2-.2.1-.2,0-.5,0-.9,0-.9.1-1.3.6-1.2,1.4,0,.4.4,1.3.9,2.5,1,2.2,1.6,4.2,1.8,5.9.4,2.9-.1,5.2-1.4,7.1-1.3,1.8-3.2,2.9-5.6,3.2-2,.3-4.1-.2-6.3-1.3-2.1-1.1-4.3-2.6-6.6-4.7-2.3-2-5.3-5-9.2-8.9-.2-.1-.3-.2-.4,0-.1,0-.1.3,0,.6.7,5.7,1.3,9.7,1.8,12.1.5,2.4,1.1,4,2,5.1.8,1,2.1,1.6,3.9,1.8.1,0,.2.1.2.4,0,.4,0,.6-.2.6l-8.9-.3c-.2,0-.4,0-.6-.1-.2-.1-.3-.3-.4-.5l-3.1-25.3c0-.3.1-.5.5-.7.3-.2.6-.2.9,0,4.6,4.4,8.3,7.7,11.1,10Z"/>
    <path d="M51.1,309.1l-9.2-.6c.9,7.7.2,13.5-2.2,17.4-2.3,3.9-5.9,6.2-10.6,6.8-3.2.4-6.1,0-8.9-1.4-2.8-1.3-5.6-3.5-8.4-6.6-2.8-3.1-5.9-7.4-9.2-12.8h0c0-.3,0-.5.3-.7.2-.2.4-.1.6,0,4.2,6.2,8.2,10.5,11.9,12.8,3.8,2.3,7.6,3.2,11.5,2.7,4.6-.6,8-2.5,10.1-5.9,2.2-3.4,2.9-7.9,2.2-13.5,0-.3,0-.5.2-.7.2-.2.4-.3.7-.3l15.1.8c.4,0,.6,0,.7.2,0,0,.2.4.3.8,1.7,6.9,2.8,11.5,3.5,13.8.6,2.3,1.2,3.8,1.6,4.5.4.6,1.1,1.1,2,1.2.2,0,.3.2.3.5,0,.3-.1.4-.3.4l-6.8-.8c-.7-.1-1.1-.4-1.3-.6-.2-.3-.3-.8-.4-1.5l-2.3-15.6c0-.7-.6-1.1-1.4-1.1Z"/>
    <path d="M29.7,342.9c.6-.8,1.5-1.3,2.7-1.4,1.1-.1,2,.1,2.8.8.8.6,1.2,1.5,1.3,2.7.1,1.2,0,2.2-.6,2.9s-1.4,1.2-2.6,1.3c-1.2.1-2.2,0-3-.6-.8-.6-1.2-1.5-1.4-2.7-.1-1.2,0-2.1.7-2.9Z"/>
  </g>
  <g>
    <path d="M83.2,605.5c-.9-.7-2.3-1.2-4.3-1.3,0,0-.1,0-.1-.2,0-.1,0-.2,0-.2.7,0,1.8,0,3.4,0,1.5,0,2.7-.1,3.5-.2.1,0,.2,0,.2.2,0,.1,0,.2-.2.2-.5,0-.7.8-.6,2.1.2,2.1.5,4.6.8,7.4.2,1.5.4,3,.6,4.6l.3,2.5c.1.9.3,1.5.4,1.9s.5.7.8.7c.1,0,.2,0,.2.2,0,.1,0,.2-.1.2-.7,0-1.8,0-3.3.2-1.5.1-2.7.2-3.6.3,0,0,0,0,0-.2s0-.2,0-.2c1.9-.3,3.2-.9,3.9-1.8.7-.9,1-2.1.8-3.7-.1-1-.3-1.7-.4-2.1-.2-.4-.4-.7-.7-.8-.3-.1-.9-.1-1.6,0l-17,2.1c-.8,0-1.3.2-1.6.4-.3.2-.5.5-.6,1,0,.5,0,1.3,0,2.3,0,0,0,0-.2.1s-.2,0-.2,0c-.1-.8-.2-1.5-.2-2l-.3-2.9-.4-2.8c0-.5-.2-1.2-.3-2.1,0,0,0,0,.2-.1s.2,0,.2,0c.1,1,.3,1.8.5,2.3.2.5.5.8.8.9.4.1.9.1,1.7,0l17.1-2.1c.7,0,1.2-.2,1.5-.4.3-.2.5-.5.5-1,0-.4,0-1.2-.1-2.2-.2-1.5-.7-2.6-1.7-3.4Z"/>
    <path d="M68.5,642.6c0,0,0,.2-.2.2-.1,0-.2,0-.3,0l-2.7-4.2h0c0-.4.2-.7.8-1,.6-.3,1.3-.5,2.2-.6-2.3-1.6-3.6-3.4-3.8-5.4-.2-1.3.1-2.3.8-3.1.7-.8,1.8-1.3,3.2-1.5l5.6-.7c.9-.1,1.6-.3,2-.5.4-.2.6-.5.5-.9,0-.3-.2-.7-.5-1.2h0c0-.1,0-.2.2-.3.1,0,.2,0,.2,0l2.5,4h0c0,.2,0,.3,0,.4,0,.1-.1.2-.2.2l-8.7,1.1c-2.8.3-4.1,1.6-3.9,3.6,0,.7.4,1.5.8,2.2.5.7,1.1,1.4,1.8,1.9l6.4-.8c.9-.1,1.6-.3,2-.5.4-.2.6-.5.5-.9,0-.3-.2-.7-.5-1.2h0c0-.1,0-.2.2-.2.1,0,.2,0,.2,0l2.5,4h0c0,.2,0,.3,0,.4,0,0-.1.1-.2.2l-10.2,1.3c-.8.1-1.4.3-1.8.5-.3.2-.5.6-.4,1,0,.4.3,1,.7,1.8h0Z"/>
    <path d="M70.1,656.3c0,0,0,.1-.1.2,0,0-.2,0-.2,0-1.7-1.5-2.6-3.2-2.9-5.2-.2-1.5,0-2.7.5-3.8.5-1.1,1.3-2,2.3-2.7,1-.7,2.2-1.1,3.4-1.2,1.5-.2,2.8,0,4.1.6,1.3.6,2.4,1.4,3.2,2.5s1.4,2.4,1.5,3.9c.2,1.4,0,2.6-.7,3.4-.6.8-1.6,1.3-3,1.5-.7,0-1,0-1-.3l-1.2-9.1c-.5,0-1,0-1.3,0-2.1.3-3.8,1-5,2.1-1.2,1.2-1.7,2.7-1.4,4.5,0,.7.3,1.3.5,1.8.2.5.6,1,1.1,1.7h0ZM79.8,646.9c-.8-.6-1.8-.9-3.1-.9l1,6.7c1.3-.2,2.2-.5,2.8-1.1.6-.6.8-1.3.7-2.2-.1-1-.6-1.8-1.4-2.4Z"/>
    <path d="M68.6,660.6c.3-.4.7-.6,1.2-.6.5,0,.9,0,1.2.3.3.3.5.7.6,1.2,0,.5,0,1-.3,1.3-.2.3-.6.5-1.1.6-.5,0-1,0-1.3-.3-.3-.3-.5-.7-.6-1.2,0-.5,0-1,.3-1.3Z"/>
  </g>
</svg>